<svg xmlns="http://www.w3.org/2000/svg" viewBox="0 0 9.71 9.71"><g id="Layer_2" data-name="Layer 2"><g id="Layer_1-2" data-name="Layer 1"><path d="M8.88,2.15l-.14.05L8,2.27l-.21.35-.16-.05L7,2l-.09-.29-.12-.3-.38-.35L5.92,1v.21l.45.43.22.26L6.33,2,6.13,2l-.3-.12V1.58l-.39-.16L5.32,2l-.4.09L5,2.4l.51.1L5.56,2,6,2.05l.2.12h.32l.22.44.57.58,0,.23-.47-.06L6,3.77l-.58.69-.07.31H5.13l-.39-.18-.38.18.1.4L4.62,5h.29l0,.36.24.07.24.26.38-.11.45.07.52.14.25,0,.44.5.84.49-.54,1-.58.26-.22.6-.83.56L6,9.57A4.84,4.84,0,0,0,8.88,2.15Z"/><path d="M5.41,7.39l-.35-.66.32-.67L5.06,6,4.69,5.6l-.8-.19-.27-.56v.34H3.5l-.7-1V3.47l-.51-.83-.81.14H.94L.67,2.6,1,2.33l-.35.08a4.84,4.84,0,0,0,4.18,7.3,4.07,4.07,0,0,0,.61-.05l0-.58s.22-.88.22-.91S5.41,7.39,5.41,7.39Z"/><path d="M1.8,1.57l.87-.13.39-.21.45.13.71,0L4.47.93,4.83,1,5.69.91,5.93.65,6.27.42l.47.07.18,0A4.8,4.8,0,0,0,4.85,0,4.87,4.87,0,0,0,1.11,1.76h0ZM5.06.48,5.55.21l.32.18L5.41.74,5,.79,4.77.66ZM3.59.52l.22.09L4.09.52l.16.27L3.59,1,3.27.78S3.58.58,3.59.52Z"/></g></g></svg>
