<?xml version="1.0" encoding="utf-8"?>
<!-- Generator: Adobe Illustrator 25.2.1, SVG Export Plug-In . SVG Version: 6.00 Build 0)  -->
<svg version="1.1" id="Layer_1" xmlns="http://www.w3.org/2000/svg" xmlns:xlink="http://www.w3.org/1999/xlink" x="0px" y="0px"
	 viewBox="0 0 924 1672" style="enable-background:new 0 0 924 1672;" xml:space="preserve">
<style type="text/css">
	.st0{clip-path:url(#SVGID_2_);}
	.st1{fill:#6A747A;stroke:#424849;stroke-miterlimit:10;}
	.st2{display:none;fill:none;stroke:#31353A;stroke-width:3;stroke-miterlimit:10;}
	.st3{display:none;fill:#81A53D;}
	.st4{fill:#50595E;}
	.st5{fill:#424849;}
	.st6{display:none;fill:#3F454C;stroke:#31353A;stroke-width:8;stroke-miterlimit:10;}
	.st7{display:none;fill:#3F474F;stroke:#31353A;stroke-width:8;stroke-miterlimit:10;}
	.st8{display:none;fill:#414B54;stroke:#31353A;stroke-width:8;stroke-miterlimit:10;}
	.st9{fill:#CF2525;}
	.st10{fill:#5B1410;}
	.st11{fill:#91271A;stroke:#4C1916;stroke-miterlimit:10;}
	.st12{fill:#490C0C;stroke:#2D0D0B;stroke-miterlimit:10;}
</style>
<g>
	<defs>
		<rect id="SVGID_1_" width="924" height="1672"/>
	</defs>
	<clipPath id="SVGID_2_">
		<use xlink:href="#SVGID_1_"  style="overflow:visible;"/>
	</clipPath>
	<g class="st0">
		<rect x="-293.7" y="97.8" class="st1" width="1468" height="882.7"/>
		<path class="st2" d="M-193.7,602.1c0,0,359.5-13.7,410.2-34.7s100.8-45.4,155-53.9c40.6-6.4,266.5-39.3,325.6-82l214.6-142.1"/>
		<path class="st2" d="M1002.3,265.8c-33.4-13.1-130.7,146.7-357.3,258.7c-122.6,60.6-243.7-2.6-433.3,137.3
			c-70.9,52.3-161,96.2-334.2,105.3"/>
		<path class="st3" d="M73.4,886.4c-32.8,13.8-89.4-14.6-85.8-21.1c11.9-21.1,57.6-20.2,66.7-21.3c55.5-6.6,99.6-5.2,108.7-4.4
			C249.3,847.1,106,872.8,73.4,886.4z"/>
		<g>
			<path class="st4" d="M794.3,175.2c0,0,154.9,409-105.3,431.9c-98.6,8.7-103.1,130.7-333.3,141.3c-182.3,8.4-202.7,158.7-396,133
				c-141.7-18.8-138.1,87.6-160,164.3c-37.3,130.7-36,468-36,468l1232.9,10.7l-8.9-1354.7L794.3,175.2z"/>
			<path class="st5" d="M794.7,175.5c0.1,0.1,0.2,0.1,0.3,0.1c0,0,0.1,0.2,0.1,0.3l0.3,0.9l0.7,1.9l1.3,3.8l2.6,7.6
				c1.7,5.1,3.3,10.2,4.9,15.3c3.2,10.2,6.2,20.5,9,30.8c5.7,20.6,10.6,41.5,14.7,62.5c4.1,21,7.4,42.2,9.5,63.5
				c2.1,21.3,3.1,42.8,2.3,64.2c-0.4,10.7-1.3,21.4-2.7,32.1c-1.4,10.6-3.4,21.2-6.1,31.6c-2.7,10.4-6.2,20.6-10.6,30.5
				c-4.4,9.8-9.7,19.3-16,28.1c-6.3,8.8-13.6,16.9-21.8,24c-8.2,7.1-17.3,13.1-26.9,18.2c-9.6,5-19.8,8.9-30.2,11.8
				c-5.2,1.6-10.5,2.5-15.7,4.3c-2.6,0.9-5.2,1.8-7.8,2.6c-1.3,0.4-2.6,0.7-4,1c-1.3,0.3-2.7,0.6-4,0.8c-2.7,0.4-5.5,0.4-8,0.3
				c-0.6,0-1.3,0-1.9,0.1l-1.9,0.2c-1.3,0.2-2.6,0.3-3.8,0.5c-5.1,0.8-10.1,1.9-15.1,3.5c-9.9,3.1-19.3,7.7-28.2,13.3
				c-8.9,5.6-17.3,12.2-25.5,19c-8.2,6.8-16.3,13.8-24.6,20.6c-16.6,13.7-34.1,26.4-52.9,36.9c-9.4,5.3-19.1,10-29,14.2
				c-9.9,4.2-20,7.9-30.3,11c-20.5,6.4-41.6,10.8-62.9,13.8c-10.6,1.5-21.3,2.7-32,3.5c-2.7,0.2-5.3,0.4-8,0.6
				c-2.7,0.2-5.3,0.4-8,0.5c-5.4,0.3-10.7,0.5-16,0.9c-21.3,1.5-42.4,5.2-62.8,11.5c-20.4,6.2-40,15.1-58.5,25.6
				c-18.6,10.5-36.2,22.7-53.8,34.8c-17.6,12.2-35.4,24.2-54.3,34.4c-4.7,2.5-9.5,5-14.4,7.3c-2.4,1.2-4.9,2.3-7.3,3.4l-3.7,1.6
				c-1.2,0.5-2.5,1.1-3.7,1.6c-10,4-20.2,7.6-30.7,10.3c-10.5,2.7-21.1,4.7-31.9,6c-10.8,1.3-21.6,1.8-32.5,1.6
				c-10.8-0.1-21.7-1-32.4-2.4c-10.5-1.4-21-2.3-31.5-2.4c-5.2,0-10.5,0.2-15.6,0.6c-5.2,0.5-10.3,1.2-15.4,2.3
				c-10.1,2.1-19.9,5.6-28.7,10.8c-8.8,5.2-16.5,12-22.9,20c-6.4,8-11.5,17.1-15.6,26.7c-4.2,9.6-7.4,19.6-10.3,29.8
				c-2.8,10.2-5.2,20.6-7.6,31c-2.3,10.4-4.6,20.9-7.3,31.4c-1.3,5.2-2.9,10.5-4.2,15.5c-0.7,2.5-1.3,5.1-2,7.7l-1.8,7.7
				c-4.7,20.7-8.2,41.8-11.2,62.9c-5.9,42.3-9.6,84.9-12.7,127.5c-1.5,21.3-2.8,42.7-3.9,64c-1.1,21.4-2.1,42.7-2.9,64.1
				c-1.6,42.7-2.7,85.5-3.2,128.3l0,0l-0.5-0.5l1232.9,10.7l-0.5,0.5l-8.9-1354.7l0.5,0.5L794.7,175.5z M793.8,174.9l193.7-5.6
				l0.5,0l0,0.5l8.9,1354.7l0,0.5l-0.5,0l-1232.9-10.7l-0.5,0v-0.5l0,0c-0.5-42.8-0.2-85.6,0.7-128.4c0.5-21.4,1.1-42.8,1.9-64.2
				c0.8-21.4,1.8-42.8,3.1-64.2c2.5-42.8,5.9-85.5,11.4-128c2.8-21.3,6.1-42.5,10.7-63.6l1.8-7.9c0.7-2.6,1.3-5.2,2-7.9
				c1.4-5.3,2.9-10.3,4.1-15.4c2.6-10.3,4.8-20.7,7.1-31.2c2.3-10.5,4.6-21,7.4-31.4c2.8-10.4,6.1-20.8,10.4-30.9
				c4.3-10.1,9.7-19.8,16.6-28.6c6.9-8.7,15.4-16.4,25.1-22.1c9.6-5.7,20.3-9.6,31.1-11.9c5.4-1.2,10.9-1.9,16.3-2.5
				c5.5-0.5,11-0.7,16.4-0.7c10.9,0.1,21.8,1,32.5,2.4c10.5,1.4,21,2.3,31.6,2.8c21.1,1,42.3,0,63.1-4.1c20.8-4,41-11.5,59.8-21.5
				c18.9-10,36.6-22,54.2-34.1c17.6-12.1,35.3-24.3,53.9-34.9c9.3-5.3,18.9-10.2,28.7-14.6c9.8-4.4,19.8-8.2,30.1-11.4
				c20.5-6.4,41.8-10.3,63.2-11.9c5.4-0.4,10.7-0.7,16-1c2.7-0.1,5.3-0.3,8-0.5c2.7-0.2,5.3-0.4,8-0.6c10.6-0.9,21.2-2.2,31.8-3.8
				c21.1-3.2,42-7.8,62.2-14.3c10.1-3.3,20.1-7,29.9-11.2c9.7-4.3,19.2-9,28.5-14.3c18.5-10.5,35.6-23.3,51.8-37
				c8.2-6.8,16.2-13.9,24.4-20.8c8.2-6.9,16.6-13.7,25.6-19.8c9-6.1,18.7-11.5,29.1-15.3c5.2-1.9,10.5-3.4,16-4.5
				c1.4-0.3,2.7-0.5,4.1-0.8l2-0.4c0.7-0.1,1.4-0.2,2.1-0.3c2.8-0.6,5.3-1.1,7.9-1.3c2.6-0.2,5.2-0.3,7.9-0.3c1.3,0,2.7,0,4,0
				c1.3,0,2.7,0,4-0.1c5.3-0.2,10.5-1.6,15.6-2.9c10.2-2.7,20.2-6.4,29.6-11.1c9.4-4.8,18.3-10.5,26.4-17.3
				c8.1-6.8,15.3-14.6,21.6-23.1c6.3-8.5,11.5-17.8,16-27.4c4.4-9.7,7.9-19.7,10.7-30c5.6-20.5,8.3-41.8,9.3-63.1
				c1.8-42.7-3.1-85.5-11-127.4c-4-21-9-41.8-14.6-62.4c-2.8-10.3-5.8-20.6-9-30.8c-1.6-5.1-3.3-10.2-5-15.2l-2.6-7.6l-1.3-3.8
				l-0.7-1.9l-0.3-0.9c-0.1-0.2-0.1-0.3-0.2-0.6C793.9,175.4,793.8,175.1,793.8,174.9z"/>
		</g>
		<path class="st6" d="M113.8,936.4c0,0-85.3,104.4-37.3,156.7c48,52.2,213.3,77.1,241.8-18.9c28.4-96-83.6-96-117.3-129.8
			S113.8,936.4,113.8,936.4z"/>
		<path class="st7" d="M463.6,816.4c-19.1,24.9-10.2,116.3-1.3,110.6c8.9-5.7,58.7-39.9,90.7-40.6c32-0.7,23.1-86,0-78.9
			C529.8,814.7,463.6,816.4,463.6,816.4z"/>
		<path class="st8" d="M816,690.2c21.3-3.6,42.7,16,29.3,26.7c-13.3,10.7-40,10.7-39.1,0C807.1,706.2,816,690.2,816,690.2z"/>
	</g>
	<g class="st0">
		<g>
			<path class="st9" d="M-122.6,1255.6c52,10.6,125.3-23.5,196.4-17c211.6,19.6,167.2-73.7,345-68.4c55.1,1.6,354.7,9,354.7,9
				l10.2,440.8l-906.2-67.6V1255.6z"/>
			<path class="st10" d="M-122.9,1255.2c0.6,0,1.3,0,2,0.1l1.9,0.2c1.2,0.1,2.3,0.2,3.5,0.3c2.4,0.2,4.7,0.3,7,0.3
				c4.7,0.1,9.4-0.1,14.1-0.5c9.4-0.7,18.7-2.1,28-3.7c18.6-3.3,37.1-7.5,55.8-10.9c4.7-0.9,9.4-1.7,14.1-2.4
				c4.7-0.8,9.4-1.4,14.2-1.9c9.5-0.9,19.2-0.7,28.7-0.3c4.8,0.2,9.5,0.4,14.3,0.7c4.8,0.3,9.5,0.5,14.2,1
				c9.4,0.8,18.9,1.4,28.4,1.6c18.9,0.5,37.9-0.4,56.6-2.4c9.3-1.1,18.6-2.4,27.8-4.2c1.1-0.2,2.3-0.4,3.5-0.6l3.4-0.7
				c2.3-0.4,4.6-1,6.9-1.4c4.6-1,9.1-2.2,13.6-3.5c18.1-5.3,34.9-14,51.7-22.8c8.4-4.4,16.9-8.8,25.5-12.7
				c8.7-3.9,17.6-7.4,26.6-10.2c18.2-5.7,37-8.8,55.9-10.3c9.5-0.7,19-1,28.5-1.1l7.1,0l7.1,0.2l14.2,0.4l113.8,3l227.6,5.5l0,0
				l0.5,0l0,0.5l10.2,440.8l0,0.6l-0.5,0l-906.2-67.6l-0.5,0l0-0.5L-122.9,1255.2z M-122.3,1255.9l0.2,296.5l-0.5-0.5l906.2,67.6
				l-0.5,0.5l-10.2-440.8l0.5,0.5h0l-227.6-6.1l-113.8-2.8l-14.2-0.4l-7.1-0.2l-7.1,0c-9.5,0-19,0.4-28.4,1.1
				c-18.9,1.5-37.7,4.7-55.7,10.6c-9,3-17.8,6.6-26.2,10.7c-8.5,4.1-16.8,8.8-25,13.4c-8.3,4.7-16.5,9.4-25.1,13.6
				c-4.3,2.1-8.6,4.2-13,6c-4.4,1.9-8.9,3.6-13.4,5.3c-4.5,1.7-9.1,3.2-13.7,4.6c-4.6,1.3-9.3,2.5-14,3.4c-9.4,1.8-19,2.9-28.5,3.5
				c-19.1,1.2-38.2,0.4-57.2-0.9c-9.5-0.7-18.9-1.5-28.4-2.4c-4.7-0.4-9.4-0.8-14.2-0.8c-4.7,0-9.5,0.3-14.2,0.8
				c-9.4,1-18.7,2.9-28,4.4c-4.6,0.8-9.3,1.4-14,2.1c-4.7,0.7-9.3,1.5-14,2.3c-18.6,3.2-37.3,6.9-56.2,9.2c-9.5,1.2-19,2-28.6,2
				c-4.8,0-9.6-0.2-14.4-0.7c-2.4-0.3-4.8-0.6-7.1-1c-1.2-0.2-2.4-0.4-3.5-0.7l-0.9-0.2c-0.3-0.1-0.5-0.1-0.7-0.2
				C-121.3,1256.3-121.8,1256.1-122.3,1255.9z"/>
		</g>
		<path class="st11" d="M631.7,1205.2c-160.1,22.7-218.3,51.3-322.4,37c-84.4-11.6-86.4,28.5-174.3,28.5
			c-112.1,0-89.7,37.5-205,19.2l-16,290.4l699.3-20.1L631.7,1205.2z"/>
		<g>
			<path class="st9" d="M44.4,468.9c176-13.1,279.2,10.7,398.3-2.7c157-17.6,446.2-164.4,435.6,38.9c-8.5,162,50.7,156.7-16,424.2
				c-41.9,168.3,228,154.7,228,154.7V60.4H40.9L44.4,468.9z"/>
			<path class="st10" d="M44.7,468.5c4.3-0.4,8.5-0.7,12.7-1l3.2-0.2l3.2-0.2l6.5-0.4c4.3-0.3,8.7-0.5,13-0.7
				c4.3-0.2,8.7-0.4,13-0.6c17.3-0.7,34.7-1,52-1.1c17.3-0.1,34.7,0.1,52,0.6c17.3,0.4,34.7,1.1,52,1.8l26,1.1l26,0.9
				c8.7,0.3,17.3,0.5,26,0.7l13,0.2l13,0c34.6-0.4,69.3-2.6,103.4-8c17-2.8,33.9-6.5,50.8-10.3c16.9-3.8,33.8-7.7,50.6-11.9
				c16.8-4.1,33.6-8.5,50.4-13c8.4-2.2,16.8-4.4,25.2-6.6c8.4-2.2,16.8-4.3,25.3-6.3c16.9-4.1,33.9-7.8,51-10.9
				c17.1-3,34.4-5.5,51.9-6.3c17.5-0.8,35.2-0.2,52.5,4.2c8.6,2.2,17.1,5.4,24.8,10c7.8,4.6,14.8,10.5,20.4,17.7
				c5.6,7.1,9.8,15.3,12.6,23.8c2.9,8.5,4.4,17.3,5.2,26.1c0.4,4.4,0.5,8.8,0.6,13.2c0,4.4-0.1,8.8-0.4,13.2l-0.7,13
				c-0.1,2.2-0.2,4.3-0.3,6.5l-0.2,6.5c-0.4,17.3,0,34.6,1.5,51.8c1.5,17.2,4.3,34.3,7,51.5c2.7,17.1,5.2,34.4,6.6,51.7
				c1.5,17.3,1.8,34.8,1.1,52.2c-0.7,17.4-2.3,34.7-4.5,51.9l-1.8,12.9c-0.6,4.3-1.4,8.6-2,12.9l-1,6.4c-0.4,2.1-0.8,4.3-1.1,6.4
				l-2.3,12.8c-3.3,17-6.8,34-10.7,51l-2.9,12.7l-3.1,12.6l-3.1,12.6c-1,4.2-1.9,8.4-2.6,12.7c-1.4,8.5-2.1,17.2-1.7,25.8
				c0.4,8.6,1.8,17.2,4.5,25.3c2.7,8.2,6.6,16,11.5,23c4.9,7.1,10.9,13.4,17.5,19c13.2,11.2,28.6,19.4,44.7,25.8
				c16.1,6.4,32.9,10.9,49.9,14.2c17,3.3,34.2,5.5,51.5,6.8c8.6,0.7,17.3,1.1,26,1.3c8.7,0.2,17.3,0.2,26-0.1l0,0l-0.5,0.5V60.4
				l0.5,0.5H40.9l0.5-0.5L44.7,468.5z M44.1,469.3L40.4,60.4l0-0.5h0.5h1049.3h0.5v0.5V1084v0.5l-0.5,0l0,0
				c-8.7,0.4-17.4,0.3-26.1,0.1c-8.7-0.2-17.4-0.6-26-1.3c-17.3-1.3-34.6-3.5-51.6-6.8c-17-3.4-33.9-7.8-50.1-14.2
				c-16.2-6.4-31.7-14.6-45.1-25.9c-6.6-5.6-12.7-12-17.7-19.2c-5.1-7.1-9-15-11.8-23.3c-2.8-8.3-4.3-17-4.7-25.7
				c-0.4-8.7,0.2-17.5,1.6-26.1c0.7-4.3,1.6-8.6,2.6-12.8l3-12.6l3-12.6l2.9-12.7c3.9-16.9,7.2-33.9,10.4-50.9
				c3-17.1,5.8-34.2,7.8-51.4c2-17.2,3.5-34.5,4-51.7c0.2-4.3,0.2-8.6,0.2-13c0.1-4.3-0.1-8.6-0.2-13c0-2.2-0.1-4.3-0.2-6.5
				l-0.3-6.5l-0.5-6.5c-0.2-2.2-0.3-4.3-0.5-6.5c-0.4-4.3-0.8-8.6-1.3-12.9c-0.5-4.3-1.1-8.6-1.6-12.9c-1.2-8.6-2.5-17.1-3.8-25.7
				c-2.6-17.2-4.8-34.4-6.3-51.7c-1.6-17.3-2.4-34.7-2.4-52.1l0-6.5c0-2.2,0-4.4,0.1-6.5l0.3-13c0.2-4.3,0.1-8.6,0-12.8
				c-0.1-4.3-0.5-8.5-0.9-12.8c-1-8.5-2.7-16.8-5.4-24.7c-2.8-7.9-6.7-15.4-11.8-21.9c-2.6-3.2-5.4-6.3-8.5-9
				c-3.1-2.7-6.5-5.1-10.1-7.3c-7.2-4.3-15.1-7.3-23.2-9.5c-8.2-2.2-16.6-3.5-25.1-4.2c-8.5-0.7-17.1-0.9-25.7-0.6
				c-17.2,0.5-34.4,2.4-51.5,5.1c-17.1,2.7-34.1,6.1-51,9.9c-8.4,1.9-16.9,3.9-25.3,6c-8.4,2.1-16.8,4.2-25.2,6.4
				c-16.8,4.3-33.5,8.9-50.2,13.7c-16.7,4.7-33.4,9.5-50.3,13.6c-16.9,4.1-33.9,7.7-51.2,10.3c-8.6,1.3-17.3,2.3-26,3
				c-4.3,0.4-8.7,0.7-13,1c-4.3,0.2-8.7,0.5-13,0.7c-17.4,0.7-34.8,0.8-52.1,0.5c-17.4-0.3-34.7-0.9-52-1.6l-52-2.2
				c-34.7-1.4-69.3-2.4-104-2.2c-17.3,0.1-34.7,0.5-52,1.2c-4.3,0.1-8.7,0.4-13,0.6c-4.3,0.2-8.7,0.4-13,0.7l-6.5,0.4l-3.2,0.2
				l-3.3,0.2C52.9,468.8,48.5,469,44.1,469.3z"/>
		</g>
		<path class="st11" d="M351.6,449.8c6-0.8,208-16,293.3-33.3c106-21.5,135.3-93.6,220-41.3c69.6,42.9,20.4,132,49,317.7
			c6.9,44.9,60.1,64.4,82.5,65V180H512.9L351.6,449.8z"/>
		<path class="st12" d="M585.8,359.1c0,0,103.9,24.9,163.1-8c48-26.7,129.4-59.3,156-9.3c25.8,48.4,13.5,110.2,15.1,148
			c4.2,97.8,4,121.8-0.4,293.3c-0.5,20.5,61.8,64,61.8,64V186.2l-395.6,18.7V359.1z"/>
		<path class="st12" d="M-56,1316c105.8-10,148-3,191.1-6.7c101.1-8.7,72.6-18.5,142.2-69.8c133.4-98.2,270.1-32.5,240,2.7
			l-9.8,270.2l-563.6,16L-56,1316z"/>
	</g>
	<g class="st0">
		<path d="M624.9,392.4c-162.7,71.1-294.4,21.3-487.5,161.1c-103,74.6-223.3,33.5-288.5,18.8V-78.2L1047.6-74v650.4
			c-81.3-42.7-118.8-484.6-116-428.4c7,137.1-96,115.6-148,174.2C738.6,373,685.3,366.1,624.9,392.4z"/>
		<path d="M1014.3,175.8c1.7-6.2-66.1,37.7-68,61.3c-24,292-11.6,541.6-104,712c-77.3,142.7-289.7,101.5-473.3,206.7
			c-156,89.3-171.6,243.8-569.3,148.7v450h1214.7V175.8z"/>
	</g>
</g>
</svg>
