<?xml version="1.0" encoding="utf-8"?>
<!-- Generator: Adobe Illustrator 25.2.1, SVG Export Plug-In . SVG Version: 6.00 Build 0)  -->
<svg version="1.1" id="Layer_1" xmlns="http://www.w3.org/2000/svg" xmlns:xlink="http://www.w3.org/1999/xlink" x="0px" y="0px"
	 viewBox="0 0 924 1672" style="enable-background:new 0 0 924 1672;" xml:space="preserve">
<style type="text/css">
	.st0{clip-path:url(#SVGID_2_);}
	.st1{fill:#C5BCB1;}
	.st2{fill:#968D84;}
	.st3{fill:#726D69;}
	.st4{fill:#CF2525;}
	.st5{fill:#5B1410;}
	.st6{fill:#91271A;stroke:#4C1916;stroke-miterlimit:10;}
	.st7{fill:#490C0C;stroke:#2D0D0B;stroke-miterlimit:10;}
	.st8{display:none;clip-path:url(#SVGID_2_);fill:#D4C013;}
</style>
<g>
	<defs>
		<rect id="SVGID_1_" width="924" height="1672"/>
	</defs>
	<clipPath id="SVGID_2_">
		<use xlink:href="#SVGID_1_"  style="overflow:visible;"/>
	</clipPath>
	<g class="st0">
		<rect x="-293.7" y="97.8" class="st1" width="1468" height="882.7"/>
		<g>
			<path class="st2" d="M794.3,175.2c0,0,154.9,409-105.3,431.9c-98.6,8.7-103.1,130.7-333.3,141.3c-182.3,8.4-202.7,158.7-396,133
				c-141.7-18.8-138.1,87.6-160,164.3c-37.3,130.7-36,468-36,468l1232.9,10.7l-8.9-1354.7L794.3,175.2z"/>
			<path class="st3" d="M794.7,175.5c0.2-0.1,0.1-0.3,0.2,0l0.2,0.5l0.3,0.9l0.7,1.9l1.4,3.8l2.6,7.6c1.7,5.1,3.4,10.2,5,15.3
				c3.2,10.2,6.3,20.5,9.1,30.8c5.7,20.6,10.7,41.5,14.8,62.5c4.1,21,7.3,42.2,9.4,63.5c2,21.3,3,42.8,2.1,64.2
				c-0.8,21.4-3.8,42.8-9.3,63.5c-0.7,2.6-1.4,5.2-2.2,7.7l-2.5,7.6l-2.9,7.5c-1,2.5-2.1,4.9-3.2,7.4c-4.4,9.8-9.7,19.2-16,27.9
				c-6.3,8.7-13.5,16.7-21.7,23.8c-8.1,7.1-17.2,13-26.7,18c-9.5,4.9-19.6,9.1-29.9,12c-2.6,0.9-5.2,1.5-7.8,2.1l-3.9,1l-2,0.5
				l-2,0.4l-4,0.8c-1.3,0.3-2.7,0.5-4,0.8c-1.3,0.4-2.6,0.8-3.9,1.3c-1.3,0.5-2.6,0.9-3.9,1.3c-5.4,1.2-10.5,1.2-15.7,1.7
				c-2.6,0.3-5.2,0.5-7.8,1c-2.5,0.6-5.1,1.2-7.6,2c-9.9,3.3-19.4,8.2-28.2,13.9c-8.9,5.7-17.2,12.4-25.4,19.1
				c-8.2,6.8-16.3,13.8-24.6,20.6c-4.1,3.4-8.4,6.7-12.6,10.1c-4.3,3.2-8.6,6.5-13,9.6l-3.3,2.3c-1.1,0.8-2.2,1.5-3.4,2.2l-6.7,4.4
				c-4.6,2.8-9.1,5.7-13.9,8.2c-9.3,5.4-19.1,9.9-28.9,14.3l-7.5,3c-2.5,1-5,2-7.5,2.9c-5.1,1.7-10.1,3.7-15.3,5.1
				c-20.5,6.4-41.6,10.8-62.8,13.8c-5.3,0.7-10.6,1.5-15.9,2.1l-16,1.5c-10.7,0.8-21.4,1.3-32,2.1c-21.3,1.5-42.4,5.3-62.8,11.5
				c-20.4,6.1-39.9,15.2-58.5,25.7c-1.2,0.7-2.3,1.3-3.5,2l-3.4,2.1l-6.9,4.1l-6.8,4.3l-3.4,2.1L198,804l-6.7,4.4l-6.6,4.5
				l-13.2,9.1c-17.6,12.1-35.4,24.2-54.3,34.3c-9.4,5.2-19.2,9.6-29.1,13.7c-5,1.8-10,3.9-15.2,5.4c-2.6,0.8-5.1,1.6-7.7,2.4l-7.8,2
				l-3.9,1c-1.3,0.3-2.6,0.5-4,0.8l-7.9,1.5c-2.6,0.6-5.3,0.8-8,1.2l-8,1.1c-2.7,0.3-5.4,0.4-8.1,0.6c-2.7,0.2-5.4,0.4-8.1,0.6
				c-5.4,0.1-10.8,0.2-16.2,0.2c-5.4-0.2-10.8-0.3-16.2-0.4c-5.4-0.4-10.8-0.8-16.1-1.4c-2.7-0.3-5.3-0.6-7.9-1
				c-2.6-0.3-5.3-0.6-7.9-0.8c-5.3-0.4-10.5-0.7-15.8-0.7c-5.3,0-10.5,0.2-15.7,0.6c-5.2,0.5-10.4,1.2-15.5,2.3
				c-10.2,2.1-20.1,5.7-29,10.9c-8.9,5.2-16.8,12.2-23.2,20.3c-6.5,8.1-11.6,17.3-15.8,26.9c-4.2,9.6-7.5,19.7-10.3,29.9
				c-2.8,10.2-5.2,20.6-7.6,31c-2.3,10.4-4.6,20.9-7.3,31.3c-1.3,5.2-2.9,10.4-4.2,15.5l-2.1,7.7l-1.8,7.8
				c-4.7,20.8-8.2,41.8-11.2,63c-2.9,21.1-5.3,42.4-7.4,63.7c-2,21.3-3.7,42.6-5.2,63.9c-1.5,21.3-2.7,42.7-3.7,64
				c-1.1,21.4-2,42.7-2.7,64.1c-0.7,21.4-1.3,42.8-1.8,64.1c-0.4,21.4-0.8,42.8-0.9,64.2l0,0l-0.5-0.5l1232.9,10.7l-0.5,0.5
				l-8.9-1354.7l0.5,0.5L794.7,175.5z M793.8,174.9l193.7-5.6l0.5,0l0,0.5l8.9,1354.7l0,0.5l-0.5,0l-1232.9-10.7l-0.5,0l0-0.5l0,0
				c-0.3-42.8,0.3-85.6,1.3-128.4c1.1-42.8,2.7-85.6,5.3-128.3c1.3-21.4,2.8-42.7,4.7-64.1c1.9-21.3,4.1-42.6,6.9-63.9
				c2.8-21.2,6.1-42.5,10.8-63.5l1.8-7.9l2-7.8c1.3-5.3,2.8-10.3,4.1-15.5c2.6-10.3,4.8-20.8,7.1-31.2c2.3-10.5,4.6-20.9,7.4-31.4
				c2.8-10.4,6.1-20.7,10.4-30.8c4.3-10,9.6-19.7,16.4-28.3c6.8-8.7,15.2-16.2,24.7-21.8c9.5-5.7,20-9.5,30.8-11.8
				c5.4-1.2,10.8-1.9,16.2-2.5c5.4-0.5,10.9-0.7,16.3-0.7c10.9,0,21.7,0.9,32.4,2.3c5.3,0.6,10.5,1.3,15.8,2
				c5.3,0.5,10.6,1,15.9,1.4c5.3,0.2,10.6,0.2,15.9,0.3c2.6-0.1,5.3-0.2,7.9-0.3c2.6-0.1,5.3-0.2,8-0.4l7.9-0.8
				c2.6-0.3,5.3-0.4,7.9-0.9l7.9-1.3c1.3-0.2,2.6-0.4,3.9-0.7l3.9-0.9l7.8-1.7c2.6-0.7,5.1-1.4,7.7-2.2c5.2-1.3,10.1-3.3,15.2-5
				c1.3-0.4,2.5-0.9,3.7-1.4l3.7-1.5l3.7-1.5c1.2-0.5,2.5-1,3.7-1.6l7.2-3.4c1.2-0.6,2.4-1.2,3.6-1.8l3.5-1.9
				c18.9-9.9,36.6-22,54.2-34.1l13.2-9.1l6.6-4.5l6.7-4.4l3.3-2.2l3.4-2.2l6.8-4.3l6.9-4.1l3.4-2.1c1.2-0.7,2.3-1.3,3.5-2
				c18.6-10.5,38.2-19.6,58.8-25.9c20.5-6.4,41.7-10.2,63.1-11.8c10.7-0.9,21.3-1.4,32-2.2l15.9-1.6c1.3-0.1,2.7-0.3,4-0.5l4-0.5
				l7.9-1.1c21.1-3.2,42-7.7,62.3-14.2c5.1-1.5,10.1-3.4,15.1-5.2c2.5-0.9,5-1.9,7.4-2.9l7.4-3c9.7-4.4,19.3-9,28.5-14.3
				c4.7-2.5,9.1-5.5,13.7-8.3l6.6-4.4c1.1-0.8,2.2-1.5,3.3-2.2l3.2-2.3c4.4-3.1,8.5-6.3,12.8-9.6c4.2-3.3,8.3-6.7,12.4-10.1
				c8.2-6.8,16.2-13.9,24.4-20.8c8.2-6.9,16.6-13.7,25.6-19.7c9-6,18.7-11.1,29.1-14.7c1.3-0.5,2.6-0.8,3.9-1.2
				c1.3-0.4,2.6-0.8,3.9-1.3l1-0.3l1-0.3l2-0.6l4-1.2c0.7-0.2,1.3-0.4,2-0.6l2-0.4c1.4-0.3,2.7-0.5,4.1-0.7c1.4-0.2,2.8-0.4,4-0.6
				c1.3-0.2,2.6-0.3,3.9-0.2c2.7,0.1,5.4,0.8,8.1,0.6c1.3-0.1,2.6-0.3,3.9-0.5l3.9-0.6l2-0.3l1.9-0.4l3.9-0.8l3.9-0.8
				c1.3-0.2,2.6-0.7,3.9-1c2.6-0.7,5.1-1.4,7.7-2.1l7.5-2.6c0.6-0.2,1.3-0.4,1.9-0.7l1.8-0.8l3.7-1.5c1.2-0.5,2.5-1,3.7-1.6l3.6-1.8
				c9.5-4.7,18.5-10.5,26.6-17.4c8.1-6.9,15.4-14.8,21.6-23.4c12.6-17.2,21.2-37.2,26.5-57.8c5.3-20.7,7.9-42,8.7-63.3
				c0.9-21.3,0-42.7-2-64c-2.1-21.3-5.3-42.4-9.3-63.4c-4-21-8.9-41.8-14.5-62.4c-2.8-10.3-5.8-20.6-8.9-30.8
				c-1.6-5.1-3.2-10.2-4.9-15.3l-2.6-7.6l-1.3-3.8l-0.7-1.9l-0.3-0.9l-0.2-0.5C793.9,175.8,793.7,175.3,793.8,174.9z"/>
		</g>
	</g>
	<g class="st0">
		<g>
			<path class="st4" d="M-122.6,1255.6c52,10.6,125.3-23.5,196.4-17c211.6,19.6,167.2-73.7,345-68.4c55.1,1.6,354.7,9,354.7,9
				l10.2,440.8l-906.2-67.6V1255.6z"/>
			<path class="st5" d="M-122.9,1255.2c0.6,0,1.3,0,2,0.1l1.9,0.2c1.2,0.1,2.3,0.2,3.5,0.3c2.4,0.2,4.7,0.3,7,0.3
				c4.7,0.1,9.4-0.1,14.1-0.5c9.4-0.7,18.7-2.1,28-3.7c18.6-3.3,37.1-7.5,55.8-10.9c4.7-0.9,9.4-1.7,14.1-2.4
				c4.7-0.8,9.4-1.4,14.2-1.9c9.5-0.9,19.2-0.7,28.7-0.3c4.8,0.2,9.5,0.4,14.3,0.7c4.8,0.3,9.5,0.5,14.2,1
				c9.4,0.8,18.9,1.4,28.4,1.6c18.9,0.5,37.9-0.4,56.6-2.4c9.3-1.1,18.6-2.4,27.8-4.2c1.1-0.2,2.3-0.4,3.5-0.6l3.4-0.7
				c2.3-0.4,4.6-1,6.9-1.4c4.6-1,9.1-2.2,13.6-3.5c18.1-5.3,34.9-14,51.7-22.8c8.4-4.4,16.9-8.8,25.5-12.7
				c8.7-3.9,17.6-7.4,26.6-10.2c18.2-5.7,37-8.8,55.9-10.3c9.5-0.7,19-1,28.5-1.1l7.1,0l7.1,0.2l14.2,0.4l113.8,3l227.6,5.5l0,0
				l0.5,0l0,0.5l10.2,440.8l0,0.6l-0.5,0l-906.2-67.6l-0.5,0l0-0.5L-122.9,1255.2z M-122.3,1255.9l0.2,296.5l-0.5-0.5l906.2,67.6
				l-0.5,0.5l-10.2-440.8l0.5,0.5h0l-227.6-6.1l-113.8-2.8l-14.2-0.4l-7.1-0.2l-7.1,0c-9.5,0-19,0.4-28.4,1.1
				c-18.9,1.5-37.7,4.7-55.7,10.6c-9,3-17.8,6.6-26.2,10.7c-8.5,4.1-16.8,8.8-25,13.4c-8.3,4.7-16.5,9.4-25.1,13.6
				c-4.3,2.1-8.6,4.2-13,6c-4.4,1.9-8.9,3.6-13.4,5.3c-4.5,1.7-9.1,3.2-13.7,4.6c-4.6,1.3-9.3,2.5-14,3.4c-9.4,1.8-19,2.9-28.5,3.5
				c-19.1,1.2-38.2,0.4-57.2-0.9c-9.5-0.7-18.9-1.5-28.4-2.4c-4.7-0.4-9.4-0.8-14.2-0.8c-4.7,0-9.5,0.3-14.2,0.8
				c-9.4,1-18.7,2.9-28,4.4c-4.6,0.8-9.3,1.4-14,2.1c-4.7,0.7-9.3,1.5-14,2.3c-18.6,3.2-37.3,6.9-56.2,9.2c-9.5,1.2-19,2-28.6,2
				c-4.8,0-9.6-0.2-14.4-0.7c-2.4-0.3-4.8-0.6-7.1-1c-1.2-0.2-2.4-0.4-3.5-0.7l-0.9-0.2c-0.3-0.1-0.5-0.1-0.7-0.2
				C-121.3,1256.3-121.8,1256.1-122.3,1255.9z"/>
		</g>
		<path class="st6" d="M631.7,1205.2c-160.1,22.7-218.3,51.3-322.4,37c-84.4-11.6-86.4,28.5-174.3,28.5c-112.1,0-89.7,37.5-205,19.2
			l-16,290.4l699.3-20.1L631.7,1205.2z"/>
		<g>
			<path class="st4" d="M44.4,468.9c176-13.1,279.2,10.7,398.3-2.7c157-17.6,446.2-164.4,435.6,38.9c-8.5,162,50.7,156.7-16,424.2
				c-41.9,168.3,228,154.7,228,154.7V60.4H40.9L44.4,468.9z"/>
			<path class="st5" d="M44.7,468.5c4.3-0.4,8.5-0.7,12.7-1l3.2-0.2l3.2-0.2l6.5-0.4c4.3-0.3,8.7-0.5,13-0.7c4.3-0.2,8.7-0.4,13-0.6
				c17.3-0.7,34.7-1,52-1.1c17.3-0.1,34.7,0.1,52,0.6c17.3,0.4,34.7,1.1,52,1.8l26,1.1l26,0.9c8.7,0.3,17.3,0.5,26,0.7l13,0.2l13,0
				c34.6-0.4,69.3-2.6,103.4-8c17-2.8,33.9-6.5,50.8-10.3c16.9-3.8,33.8-7.7,50.6-11.9c16.8-4.1,33.6-8.5,50.4-13
				c8.4-2.2,16.8-4.4,25.2-6.6c8.4-2.2,16.8-4.3,25.3-6.3c16.9-4.1,33.9-7.8,51-10.9c17.1-3,34.4-5.5,51.9-6.3
				c17.5-0.8,35.2-0.2,52.5,4.2c8.6,2.2,17.1,5.4,24.8,10c7.8,4.6,14.8,10.5,20.4,17.7c5.6,7.1,9.8,15.3,12.6,23.8
				c2.9,8.5,4.4,17.3,5.2,26.1c0.4,4.4,0.5,8.8,0.6,13.2c0,4.4-0.1,8.8-0.4,13.2l-0.7,13c-0.1,2.2-0.2,4.3-0.3,6.5l-0.2,6.5
				c-0.4,17.3,0,34.6,1.5,51.8c1.5,17.2,4.3,34.3,7,51.5c2.7,17.1,5.2,34.4,6.6,51.7c1.5,17.3,1.8,34.8,1.1,52.2
				c-0.7,17.4-2.3,34.7-4.5,51.9l-1.8,12.9c-0.6,4.3-1.4,8.6-2,12.9l-1,6.4c-0.4,2.1-0.8,4.3-1.1,6.4l-2.3,12.8
				c-3.3,17-6.8,34-10.7,51l-2.9,12.7l-3.1,12.6l-3.1,12.6c-1,4.2-1.9,8.4-2.6,12.7c-1.4,8.5-2.1,17.2-1.7,25.8
				c0.4,8.6,1.8,17.2,4.5,25.3c2.7,8.2,6.6,16,11.5,23c4.9,7.1,10.9,13.4,17.5,19c13.2,11.2,28.6,19.4,44.7,25.8
				c16.1,6.4,32.9,10.9,49.9,14.2c17,3.3,34.2,5.5,51.5,6.8c8.6,0.7,17.3,1.1,26,1.3c8.7,0.2,17.3,0.2,26-0.1l0,0l-0.5,0.5V60.4
				l0.5,0.5H40.9l0.5-0.5L44.7,468.5z M44.1,469.3L40.4,60.4l0-0.5h0.5h1049.3h0.5v0.5V1084v0.5l-0.5,0l0,0
				c-8.7,0.4-17.4,0.3-26.1,0.1c-8.7-0.2-17.4-0.6-26-1.3c-17.3-1.3-34.6-3.5-51.6-6.8c-17-3.4-33.9-7.8-50.1-14.2
				c-16.2-6.4-31.7-14.6-45.1-25.9c-6.6-5.6-12.7-12-17.7-19.2c-5.1-7.1-9-15-11.8-23.3c-2.8-8.3-4.3-17-4.7-25.7
				c-0.4-8.7,0.2-17.5,1.6-26.1c0.7-4.3,1.6-8.6,2.6-12.8l3-12.6l3-12.6l2.9-12.7c3.9-16.9,7.2-33.9,10.4-50.9
				c3-17.1,5.8-34.2,7.8-51.4c2-17.2,3.5-34.5,4-51.7c0.2-4.3,0.2-8.6,0.2-13c0.1-4.3-0.1-8.6-0.2-13c0-2.2-0.1-4.3-0.2-6.5
				l-0.3-6.5l-0.5-6.5c-0.2-2.2-0.3-4.3-0.5-6.5c-0.4-4.3-0.8-8.6-1.3-12.9c-0.5-4.3-1.1-8.6-1.6-12.9c-1.2-8.6-2.5-17.1-3.8-25.7
				c-2.6-17.2-4.8-34.4-6.3-51.7c-1.6-17.3-2.4-34.7-2.4-52.1l0-6.5c0-2.2,0-4.4,0.1-6.5l0.3-13c0.2-4.3,0.1-8.6,0-12.8
				c-0.1-4.3-0.5-8.5-0.9-12.8c-1-8.5-2.7-16.8-5.4-24.7c-2.8-7.9-6.7-15.4-11.8-21.9c-2.6-3.2-5.4-6.3-8.5-9
				c-3.1-2.7-6.5-5.1-10.1-7.3c-7.2-4.3-15.1-7.3-23.2-9.5c-8.2-2.2-16.6-3.5-25.1-4.2c-8.5-0.7-17.1-0.9-25.7-0.6
				c-17.2,0.5-34.4,2.4-51.5,5.1c-17.1,2.7-34.1,6.1-51,9.9c-8.4,1.9-16.9,3.9-25.3,6c-8.4,2.1-16.8,4.2-25.2,6.4
				c-16.8,4.3-33.5,8.9-50.2,13.7c-16.7,4.7-33.4,9.5-50.3,13.6c-16.9,4.1-33.9,7.7-51.2,10.3c-8.6,1.3-17.3,2.3-26,3
				c-4.3,0.4-8.7,0.7-13,1c-4.3,0.2-8.7,0.5-13,0.7c-17.4,0.7-34.8,0.8-52.1,0.5c-17.4-0.3-34.7-0.9-52-1.6l-52-2.2
				c-34.7-1.4-69.3-2.4-104-2.2c-17.3,0.1-34.7,0.5-52,1.2c-4.3,0.1-8.7,0.4-13,0.6c-4.3,0.2-8.7,0.4-13,0.7l-6.5,0.4l-3.2,0.2
				l-3.3,0.2C52.9,468.8,48.5,469,44.1,469.3z"/>
		</g>
		<path class="st6" d="M351.6,449.8c6-0.8,208-16,293.3-33.3c106-21.5,135.3-93.6,220-41.3c69.6,42.9,20.4,132,49,317.7
			c6.9,44.9,60.1,64.4,82.5,65V180H512.9L351.6,449.8z"/>
		<path class="st7" d="M585.8,359.1c0,0,103.9,24.9,163.1-8c48-26.7,129.4-59.3,156-9.3c25.8,48.4,13.5,110.2,15.1,148
			c4.2,97.8,4,121.8-0.4,293.3c-0.5,20.5,61.8,64,61.8,64V186.2l-395.6,18.7V359.1z"/>
		<path class="st7" d="M-56,1316c105.8-10,148-3,191.1-6.7c101.1-8.7,72.6-18.5,142.2-69.8c133.4-98.2,270.1-32.5,240,2.7
			l-9.8,270.2l-563.6,16L-56,1316z"/>
	</g>
	<path class="st0" d="M624.9,392.4c-162.7,71.1-294.4,21.3-487.5,161.1c-103,74.6-223.3,33.5-288.5,18.8V-78.2L1047.6-74v650.4
		c-81.3-42.7-118.8-484.6-116-428.4c7,137.1-96,115.6-148,174.2C738.6,373,685.3,366.1,624.9,392.4z M1014.3,175.8
		c1.7-6.2-66.1,37.7-68,61.3c-24,292-11.6,541.6-104,712c-77.3,142.7-289.7,101.5-473.3,206.7c-156,89.3-171.6,243.8-569.3,148.7
		v450h1214.7V175.8z"/>
	<path class="st8" d="M116.5,441.3c-6.7,6.5-11.4,13.2-15.8,24c4.4-7.7,11.4-7.9,13.2-10c-5,7.7,3.8,1.8,6.5-0.8
		c1.2,1.8,2.3,3.5,4.1,3.3c-1.5,2.6-0.6,5,0.5,7.6c1.5-0.5,1.5-1.6,1.6-3.3c0.2,2.3,1.5,3.6,1.3,6.2c4.4-0.6,6.9-1.5,10.5-4.1
		c-3.3,3.8-6.4,6.6-10.3,10c2.6-0.3,7.5-4.4,7.5-4.4s-5.9,6.9-8.3,10.9c9.4-9.3,18.3-19.4,31.6-25.7c9.1-4.3,12.5-6.2,12.8-15.4
		c1.9,6.3-1.1,12.5-9.1,17.3c-10.8,6.5-16.4,17.3-22.2,25.7c5.3-5.6,16.1-21.3,39-34.1c-10.1,7.4-13.4,10.4-15.5,14.8
		c6.8-6.7,13.3-11,23.5-20.1c-4.3,9.5-10.6,18.2-18.4,26.4c9.3-8.7,17.2-17.3,23.1-26.1c-1.7,5.1-2.3,7.2-5.4,11.8
		c2.7-3.6,5.5-6.7,11-9.4c-10.6,8.1-4,10.8-8.4,18.4c6.9-6.3,0.2-10.8,15.8-21c-10.3,9.2-7.9,9.9-7.1,11.3c2.1-5.9,6.2-5.9,11.2-5.6
		c3.3,0.2,5-3.6,8.7-4.6c-2,2.4-0.6,2.8,1.7,4.2c-0.5-1.9-1.8-1.7-0.6-3.9c2.1,8.7,37.9-1.6,55.6-9.2c-8.5,6.6-29.4,13.1-50.4,17.9
		c0,0,25.6-4.1,30.1-5.2c7.1-1.8,20.5-8.4,27.9-5.5c-4.1-0.1-10.8,0.3-16.6,4.5c-4.1,2.9-10.9,5.6-18,8c10-1.1,20.4-9.1,28.2-8.5
		c-8,1.2-13.3,5.4-19.5,7.9c24.1-8.1,20-1,48.8-10.1c-15.7,6.8-12.1,5.2-24.6,10.1c15.4-2.7,31.5-5.8,42.1-9.1
		c-9,4.3-23.5,7.6-35.3,11.1c27-1.8,20.6-7.9,61.7-11.9C294.1,454,309.7,463.2,249,461c17.2,0.6,14.3,5.7,36.7,3.9
		c-19.7,7.1-36.6,3.3-53-2.4c5.2,5,8.5,7.7,18.3,10.4c-10.9-0.3-20-7.4-27.2-7.1c10,4.4,18.9,9.9,22.1,16.3
		c-13.4-12.1-21.5-10-37.4-13.8c10,2.7,17.2,6.4,22.9,10.9c-4.6-2.7-9.1-4.7-13.7-5.7c4.5,2.7,8.4,5.9,11.7,9.5
		c-3.5-3.7-9.2-6.5-17-8.6c3.2,5.2,7.3,9.2,12.6,11.9c0.7,1.3-11.7-5.8-13.8-7.4c1.2,3.1,7.1,12.4,13,15.5
		c-6.6-0.9-12.4-6.7-17.1-13.1c0,0,1.2,4.2,3.9,6.7c2.7,2.5,4.1,6.3,3.6,8.4c0,0-1.4-5.6-6.1-7.4c-4.7-1.8-7.7-9.3-7.7-9.3
		c-0.2,3.3,0,6.2,0.7,8.3c-1.7-1.4-2.2-2.8-3.4-4.1c1.5,2.7,2.1,5.5,2.3,8.4c0.1,2.7-1.1,5.1-1.7,7.9c-0.1-2.7,0.5-3.8-0.6-7.8
		c-0.8-3-1.3-5.6-1.7-7c0.1,1.3-0.7,7.8-1.4,9.7c0-3.6-0.3-6.1-1-10.2c-0.3,5.4-2.9,7.8-4.2,10.7c-0.4,1-0.4,3.8-0.4,7.8
		c-1.9-6.1-2.1-7.2-0.8-10.6c3.6-9.8,1.8-9.6,1.7-12.5c-4.2,10.6-9.4,18-12.8,21.3c-7.5,7.4-10.7,11.6-15.9,21.4
		c0.7-3.6,6-12.9,8.8-17.2c2.4-3.7,6.9-10.5,9.2-21.5c-4.5,10.4-10.3,13.5-17.3,31.3c0.7-6,0.8-5.8,3.6-12.7c-4.3,5.9-6.4,9-11.8,14
		c2.6-4.3,2.7-3.1,4.8-9.4c-2.7,4.1-7.9,11.5-14,16.1c1.6-0.7,11.1-16.1,12.9-21.2c-4.9,1.6-16,13.4-21.6,27.6
		c4.2-12.1,13.3-25.3,24.3-38.8c-1.9,1.8-15.2,17.6-20.2,19.9c-9.1,4.2-18.3,20.6-24.2,37.1c3.7-12.8,6-15.6,7.1-18.6
		c-1.4,2.3-4.6,7.9-9,13.1c3.1-5.1,8.6-15.7,11-22.3c-3.8,7.4-8.5,18-18,25.4c-13.1,10.3-14.7,8.7-17.6,20.2
		c0.8-6.1,1.7-9.9,9.4-16.7c9.2-8.3,13.1-13.5,27.2-35.4c-18.8,28.7-28.8,35.2-53,44.4c-6.4,2.4-20.8,11.2-26.2,21.4
		c4.3-9.8,19.4-20.2,25.6-23.2c32.1-15.7,43.8-37.6,57.2-57.1c-16.7,20.7-31,48.2-71.7,61.1c-12,3.8-36.8,14.5-39.8,21.7
		c18.4-24.6,66.1-22.3,88.7-68.5c0,0-9.5,18.1-29.8,30.7c-6.4,4-10,3-32.6,15.3c21.1-14.2,27.8-11.8,40.3-26.9
		c7.3-8.8,9.2-16.6,15.9-35.6c-7.6,19.2-16.5,33.5-27.9,40.6c8.8-9.3,13.2-16.1,19-36c-5.5,16.6-18.1,36.4-55.1,53.6
		c46-27.4,37.3-39.7,55.4-74.4c-10.4,14.2-14.1,32.9-28,43.6c-6.3,4.8-12.9,2.6-18.1,14c0.7-7.6,10.4-14.1,15.1-18.3
		c9.6-8.6,11.8-20.8,15-27.1c-6.5,17.5-18.1,24.1-21.9,27.9c-15.2,13.6-32.6,20.6-34.4,24.2c-1.8,3.5-0.6,4.4-5.9,8
		c6.8-3.6,2.8-8.5,10.3-12.6c5.3-3,23.5-16,31-27.4c7.1-10.7,13.6-16.4,20.5-30.6C69.8,493,59.2,504.3,55.6,510
		c2.5-6.1,7.3-8.1,29.7-47.4c-25.4,45.7-31.4,30-47.4,57.5c12-23.7,20.6-24.4,30-46.4c-13.8,23.3-34.7,40.6-61.5,49.2
		c31.5-11.7,54.5-49.5,56.3-60.3c-5.7,9.4-9.7,19.9-31.5,29.6c10.7-6.8,24-27.2,27-30.9c-5.5,3.1-5.1,4.2-10,10.7
		c2-3,2-6.9,6.8-13.9c0,0-6.7,4.8-10.5,7.8c-5.2,4.1-21.7,4.7-21.7,4.7c12.9-3.6,21.5-8.7,24.4-11.4c13.5-12.4,14.9-16.7,25.9-18.8
		c-19.1,1.9-7.4,9-30.5,4.1c13.6-0.7,9.9-2.6,15.3-6.3c-12.9-10.7-24-5.3-27.8-4.5c13.3-6.9,21.5-3.3,29.2,0.3
		c-5.2-5.9-12.9-12.8-18.9-14.9c-6.6-2.3-12.7-1.2-12.8-1.2c8.3-3,15.8-1.6,29.1,6c7.1,4,17,2.6,17,2.6
		c-23.8-3.6-26.6-12.7-43.5-16.3c19.6,1.7,19.6,11.8,51.1,11.9c-16.7-0.5-39.7-8.5-45.8-16.6C29.8,397.8,7,406,7,406
		s16.9-10.9,30.6-6.3c14.1,4.7,16.7,5.3,27.2,5.4c-17-3.3-16.2-8.5-35.5-11c17.5-2,29.1,9.5,38.3,3.2c-4.7,2.9-7.3-2.3-7.9-5.2
		c5.5,7.8,8-0.4,12.3-1.6c4.1-1.1,10.6,0.7,16.7-4c0.6,3.2,3,10.4-0.4,12.2c3.9,0.2,4.5-3.6,6.7-5c1,10.4,12.1,0.3,16.1,11.6
		c-5.6-2.7-1.8,3.4-4.7,4.7c-1.8-2.2-1,2.8-20.1,0.6c2.3,0.6,4.2,1.3,4.6,2c6.5,0.6,12.7-1.1,19.3,0c-0.3,2.4,5.7,5.5,7,4.3
		c-0.8,1.7-0.4,2.7,2.2,2.5c-7.6,2.6-17.9,2.8-28.9,1.6c3.3,2.3,6.4,4.4,8.6,4.1c-1.5,0.1-2.7,0.5-3.5,1.5c0,0,6.6,2.6,8.4,2.3
		c-5.5,2.1-12.9,8.4-20.1,14.4c10.6-6.6,21.4-11.7,32.7-14.7c-1.8,1.5-1.2,2.3,0.3,2.8c-6.9,4.7-11.6,8.4-18.2,15.9
		C103.2,443.8,107.8,443.9,116.5,441.3z M124.2,435.5c-0.4,4.4-1.2,8.4-3.5,10.8c-2,2.1-3.4,5.4-4.7,8.9c2.2-4.3,4.8-7.2,8.1-7.6
		c2.3,1.6,3.5,3.6,3.3,5.9c0.8-0.4,1.5-1.5,1.8-3.6c1,0,1.6,1.3,1.6,3.6c3.3-2.4,5.1-5.3,4.9-8.1c-0.6,1.9-2.1,2.1-3.2,2.1
		c0.7-2.1,3.3-5.2,5-6.9c-3.2,1.6-6.5,3.2-7.9,4.4c-0.9-1.4-0.9-3.8-0.3-6.8C127.1,438.8,125.4,438,124.2,435.5z M141.5,447.7
		c-0.6,1.3-6.2,11.8-10.1,15c6.1-2.6,16.8-11.5,18.8-13.6c-2.3,0.9-4.8,2.2-5.9-0.5C142.6,450.4,141.2,450.2,141.5,447.7z
		 M111,398.4c-7-10.4,6.8-7.3,6.8-7.1c3.9-6.3-14.9-15-19.4-15.1c9.2,0.2,14.2,2.6,17.3,4.1c0.1-1.3,1.6-3.7,2.8-5.3
		c-3.1-1.4-3-4.4-5.5-9.4c3.1-2.1,5.2-4,5.5-7c-7.6,1.3-19.9-0.3-21.2-5.3c4.7,0,14.7,1.9,14.7,1.9l0.4-4.6h-3.1l2.7-1.9
		c0,0-16.6-21-34.5-15.7c7.9-5.9,23.1-1.8,25.3,0.9c7.4-7.9,14.4-12,18.8-13c-7.1,0-10.8-1.6-10.8-1.6s5.3-1.6,5.2-1.2
		c-0.1,0.4-8.5,0.4-11.2-0.1c2.2-1.8,3.1-4.8,3.1-4.8s-8-2.8-11.6-1.8c4.6-3.6,6.8-4.6,7.9-7.4c-4-0.6-11-1.3-13.2-3
		c3.3-1.2,4.9-0.9,4.9-0.9l-2.2-1.5l7.7,1.2c0,0,12.4-9.3,20.1-9.6c-5.2-1.3-6.5-1.3-9.6-3.1c-3.3,3-14.4,3.1-16.1,5.5
		c3.9-3.6,8.1-2.8,10.4-4.1c-5.3,1-9.2,1-12.4,2.1c2.7-3.3,5-4.7,6.7-4.9c-0.3-1.3-1.9-7-0.9-8.4c-3,6-21.3-3-34.5-12.1
		c6.8,5.3,9.1,9.6,9.1,9.6s-12.2-6.3-24.7-1.4c13.6-1.4,21.2,1.7,31.2,7.4c-19.1-7.6-31.1,4-59.9,1.4c17.3,5.7,28.7-1.7,57.7,7
		c-11.9-3.2-29.6-3.7-43.3-2.8c8.5,1.3,25.4,4.3,31.3,8.1c-9-2.4-14.1-3-17.2-3.6c4.4,2.9,25.9,11.1,28.6,12.2
		c-10.3-4.3-19.7-5.1-27.3-4.7c7.1,1.6,23.6,10.4,25.1,12.2c-6.3-1.9-8.2-1.9-8.2-1.9s2.6,1.1,3.3,2.2c-0.4,3.3-15.7,6.4-22.2,3.9
		c-0.4,3.8-9.1,6.9-13.3,8.8c6.8-1.1,28.5-5.4,48.3-1.8c-22.6-0.9-18.7,3.6-38.1,6.1c8.2,0.2,10.6-0.3,14.2,1.2
		c-3.3-0.6-13.2,0.8-15.7,2.7c6.7-0.6,8-0.1,35.1,10.4c-4.7-2-34.1-11.4-50.5-5.5c27.4-0.9,25,6.9,58,19.5
		c-11.4-2.1-24.5-9.6-29.4-12.2c5.3,5.9,25.2,18.5,28.1,19.5c-22.6-5.8-27.5-19.5-46.4-20.4c26.1,7.3,15.1,18.2,54.6,27.3
		c-9.2-1.4-24.4-7-30.3-9.4c2.7,1.8,2.6,3.2,1.9,3.2c-8.3-0.2-9.4-5.3-19-8.5c10,6.5,7.4,11.1,18,12.7
		c-17.6,0.2-15.5-12.8-30.1-14.3c12.4,4.1,6.4,19.6,30.3,22.3c-13.8,3.8-22.3,3-29.3,8.2c13.1-4.1,15.9,0.7,42-2.6
		c-2.9,1.5-12,1.3-17.6,4.9c9.7-2.5,13.4-1.7,25.1-3.4c-8.8,2.4-5.4,2.1-15.6,3.9c7.5,0.7,16,0,20.6-1.8c0,0,1.1,4.9,1.9,6
		c1.2-1.7,2.1,0.3,1.6,1.6c1.7-0.1,2.6-1.3,3.3,0c1.9-0.4,3.1-0.7,4.2,1.2c-0.4-2.8-1-3.2-1.1-5.3C101.4,390.9,111,398.4,111,398.4z
		 M117.1,351.3c0.7-2.5,3.6-7.9,5.7-9.1c-2.5,0.3-2.7-13.6,1.2-19c-4.9,6.7-11.2,13-13.8,14c1.9,2.4,1.3,3.3-0.4,3.2
		C112,342.2,117.1,351.3,117.1,351.3z M110.4,309.8c-0.2-4.5,3.3-1.8,7-5.3c-7.3,1.6-4.2-2.6-8.6-1.5c0.5,3-1.1,3.3-3.1,4.7
		C108.7,310.6,110.4,309.8,110.4,309.8z M111.2,299.4c1.5,0,2.7-0.3,3.6,0c1.7,0.1,1.7,2,1.7,2c-0.3,0,2.9-4.6,5.2-5.3
		C117.8,295.5,111.7,298.7,111.2,299.4z M103.3,273.1c1.9-0.2,11.9,0,14.8-0.2c-3.3-2-4.3-2-7.9-1.9c3.6-0.9,3-0.7,4.5-0.7
		c-2.8-2.1-4.9-2-5.6-3.2c-2.9,0.8-6.8,2-7.9,5.1c1.9-1.3,4.1-3,5.4-1.9C103.9,270.9,103.3,273.1,103.3,273.1z M108.2,261.3
		c-7,1.2-10.5,4-11.7,5.3c2.4-3.7,20.3-10.9,25.7-10.7c-5.2-0.3-9.4,0.4-13.5,1.3c2.1-1.3,7.9-1.5,10.1-4.1
		c-12.1,0-11.1-0.7-18.2-2.6c12.5,3.3,10.9-1,20.1,0.3c-9.6-4.4-10.7-6.5-15.3-10.1c-0.1-5.4,5.1-11.4,7.3-10.4
		c-1.1-1.2-3-4.7-3-6.9c-1.1,1-18-2.8-21.2-2.8c0.6-1.1-0.2-1.1,2.6-3.2c-2.1,1.3-5.9,1-8.4-0.2c0.3,0.8,0.7,0.1,0.2,3.1
		c-1.9-0.7-2.4-2.1-3.1-3.3c-0.1,1.1-0.1,0.8,0.4,3c-5.4,1.3-34.2,0.5-41.9,0c3.8,0.7,36.9,5.1,40.2,6.6c-0.9-0.4-7.5,0-9.6,1.6
		c8.6-2.6,12.2,2.7,17.7,4.7c-0.6-0.6-5.4-2.1-8.4-1.9c3.1,0.4,4.7,1.4,10.9,5.6c-5.5-1.9-17.8-5.7-24.2-4c2.9-0.2,4.4,0.1,5.2,1.1
		c-6.1,1.3-12.7-2.9-21.1-1.8c12.2,0.6,13,5.6,35.1,7.7c-11.6-1.4-17.4-1.3-23.5-0.7c12.4,1,20.6,3.2,28.6,6.1
		c-19-4.9-19.3,2.9-47.4-4.6c23.6,8,51.1,6.1,44.4,10.3c-10.6,3-8.5-6.4-35.6,1.2c28.3-4.9,29.6,12.2,36.1,8.8
		c-3.8,1.9-9.6,0.9-13.8-0.3c5.6,3.6,13.4,8.7,21.1,2.9c-3.2,2.5-6.3,3.9-16.6,2.8c4.3,0.8,13.1,4.9,16.2,6.8
		C94.9,268.4,104,262.4,108.2,261.3z M124.9,225.4c-4-4.7-4-6.5-1.5-9.2c-4.3-0.6-3-1.9-1.2-2.8c-1.3-2.4-0.7-0.4-0.6-4.9
		c-2.5,7.4-5-2.4-9.8-4.3c3.3-0.3,6.8-3.3,7.7-6.4c-5.5,2.7-11.1,3.4-14.2,0.9c2.5,4.4-1.5,0.9-5.6,0.3c-0.3,2.5-11,2.1-13.6,1
		c11.7-0.7,15.1-4.5,32-4.1c-6.8,0.4-4-2.2-4-2.2s-3.4-1.2-2.1-1.9c-0.3-0.4-1.5-2.2,0.4-2.2c-0.4-1.8,4-4.1,5.6-5.2
		c-4,3-21.8-0.1-24.7,2.5c7.8-4.7,12.8-4.8,13.6-3.9c-1.3-3.3-3.1-2.8-3.1-2.8c0.1-0.6,4,0.4,5.8,1.3c-1.9-1,2.4-1.8,2.5-3.3
		c-3.4,0.4-4.3-0.6-1.3-2.2c-2.1-1,3.3-7.4,5.9-9.8c-5.4-1.9-21.6,0.9-25.2,5.9c-1-1.2,0.4-0.1-1.9-0.7c0.3,1.6-3.7,2.5-5.3,0.7
		c-0.7,7.2-19.6,10.9-24.3,11.6c-15.5,2.5-14.9-6.5-33-7.2c15.1,1.7,15.5,7.8,26.5,9.9c-6.3-0.4-7.9-1.6-15.6-3.3
		c5.5,0.9,13.1,11.1,45.4,2.3c-19.3,6.5-15.9,1.6-33.8,8c-9.5,3.4-17.1,3.4-31.4,1.1c12.2,2.5,13.2,5.9,34.5,0.9
		c6.9-1.6,9.8-1.8,20.9-2.4c-10.6,3.8-17.6,6.1-29.7,5.6c14.7,3.8,31-3.3,42,3.1c-10.3-2.3-23.4,0.1-35.7,4.6
		c27-6,28.4,2.1,46.7-0.9c-7.3,1.8-7.3,3.1-10.5,3.6c5.6,1.2,11.4,0.3,15,1.5c-0.9-1.8-0.8-2.7-0.8-2.7c1.8,0.2,3.3,0.9,4.4,2.4
		l-0.7-3c0.4-0.5,9.8,4.4,9.6,7.4c-10.1,1.3-28.4-1.8-34.7-3.6c8.3,3.4,18.7,6.2,22.1,6.5c-4.2,1-3.4,0.6-5.8,0.9
		c9.6,0.7,16.1-0.1,19.6,3.9C114.8,220.2,119.1,221.1,124.9,225.4z M116,160.2c1.2-1.1,1.1-1.6,3.1-4.4c-1.2,1.8-2.6,0.2-4.2,1.7
		c0.2-2.1,4.5-4.5,7.9-8.1c-0.9,0.8-5.1,1.9-9.6,4.3c1.5-0.5,1.9-1.2,5.3-4.2c-0.7,0.5-9.4,3.6-11.3,4.2c0-1.3,0.2-0.9,5-3.5
		c-1.7,1.1-7.6,1.5-10.2,1.6c2.5-0.7,3.8-0.8,8.4-2.7c-1.9,1.6-21-0.9-27.3-1.2c2.1-0.2,19.4-3.2,22.4-3.9c-1.7-0.5-1.9-1-0.7-3
		c-1,0.9-8.2-0.2-9-4.1c-0.6,1.5-1.4,2.3-3.1,1.1c-16.4,3.4-17.8,0.3-26.2,1.3c-6.9,0.9-9.3-1.4-17-2.2c10.7,2.5,3.8,3.7,23,5.1
		c-16.5,0.5-36.4-0.5-51.2-6.7c11.9,7.4,35.2,11.1,41.8,9.9c-1.9,0.5-6.8,1.1-16.2-0.7c6.5,2.7,13.6,5.2,20.4,2.4
		c-7.4,5.2-18-0.2-28.8-0.3c19.5,2.9,11.3,7.1,33.3,4.1c-21.2,1.3-16.6,14.9-40.6,7c24.5,13.8,19.6-4,44.4,0
		c-8.8,1.1-12.8,2.5-18,7.1c14.4-8.8,18.8-1.9,34.9-6.4c-9.3,3.4-14.8,1.7-16,7.8c3.4-2.3,1.4-0.6,1.4-0.6c-1.3,1.5-4.6,5.8-28,4.8
		c45.6,7.1,25.9-9.8,70.7-7.5C118.9,162.7,120,160.4,116,160.2z M126.8,42.6c-3.6-0.4-1.5-2.7,1.3-3.7c-1.4-1.1-4.1-3.8-2.7-5.4
		c-3.4-2.2-11-0.8-10.1-12.8c-1.5,1.9-3.7,5.2-2,9c-3.4-6.5-7.5-5.5-9.5-9.6c1.3,4.7,7.9,8.4,9.2,13.6c-5.5-7.3-14-7.2-15.4-18
		c0,0-2.5,8.1,2.8,13.8c-7.3-1.3-13.1-2-20.5-11c2.5,4.5,7.4,9.5,14,12.1c-7.5-2.1-10,0.8-16-2.1c2.5,2.5,11.7,4.8,12.8,7.6
		c-13.9-9.7-18.2-2.9-31-10.6c2.1,1.4,2,2.7,6.7,4.3c-4.3-0.4-13.2-4.9-20.4-7.9c14.5,7.7,16.9,13.5,35.6,20.2
		c-12-4-15.2-3.8-22.3-8.3c6.4,5.3,11.9,5.3,21.8,10.6c-15.6-6.7-19.6-7.6-37.2-12.1C31.6,29.2,24,20.1,21.9,18.7
		c5.7,4.9,13.5,13.7,26.5,17.3c9.7,2.7,19.1,13.8,37.9,17.2c-22.7-3.5-27-15.9-62.1-20.1c21,3.2,30.7,14.2,47,20.1
		C52.9,53,53.7,48,31.4,39.6C53.3,48.8,42,56.7,86.3,59.8c-14.2,4.3-23.5-3-36.1,1.5c16.2-2.3,9.8,3.9,26.7,8.1
		c-5.1,0.2-6.7,3.7-16,3.3c5.8,0.9,6.9,1.4,12.8,0.7c-3.3,2-15.3,3.3-28.8-3.4c25.8,19.1,35.6,3.4,50,2.7c0.7-0.1,1.2-0.1,1.5,0
		c-0.5,0-1,0-1.5,0c-2.2,0.4-6.1,1.9-8,3.6c1.5-0.9,12.2-2.3,14-1.4c-1.6,0-2.1,0.5-4.4,1l5.9,1.7l-8-0.6c0,0,3.8,1.3,5.8,2.9
		c-22.3-1.5-32.6,8.4-54.3,1.4c24.6,10.1,26.8,1.4,49.8,4.2c-7.3,0.3-7.3,2.2-18.1,2.9c2,0,7.1,1.8,15.8,3.6
		c-17.5,1.3-20-2.8-27-2.6c8.9,1.9,9.4,5.7,19.2,8.7c-12-0.1-12.5-8.4-38.4-5.5c16.2-0.9,15.5,3,24.4,5.5
		c-13.6-1.6-21.5,4.9-41.4-10.4c14.5,14,23.5,13.3,38.3,14.5c-8.4,1.6-19.2-2-27.8,1.5c6.7-2,21.6,2.8,36.4,2.1
		c-9.8,1.9-27-1.5-44.4,5.7c25.7-4.9,16.1,1.7,38.9,4.7c-3.8-0.2-11.7-1.4-17.3-0.1c12.6,0.5,18.7,4.2,29,4
		c-11.1,3-21.6-0.5-32.2,0.2c19.4,1.8,20.3,4.2,30.5,2.4c-6.4,1.4-11.8,1.2-19.1-0.5c11,3.7,19.9,2.8,22,6c-12.8,5.5-14,2-22.9,6.1
		c12.6-2.7,18,0.8,34.5-1.5c3-0.8,3.1-3.6,5.9-3.2c-1.4-2-0.4-4.7-0.4-4.7c2.3,0.5,3,1.2,1.6,2c1.3-0.6,2.4-1.7,3.3-1
		c1.8,1,2.6,1.9,1.8,2.5c-0.1,0.3,2,1.6,6.7,1.5c-2.2,2-9.1,1.8-9.1,1.8c3.4,2.6,5.5,2.9,10.3,3.7c-2.6-0.4-7.4-0.1-8.9,1.2
		c2.6,1.3,6,3,6.9,4.9c1.8-0.8,3.5-2.2,5-4.1c-0.8,1.9-2.1,3.8-3.9,5.7c2.8-1.4,5.1-3.4,7-6c0,0,0,0-0.2,2.9
		c3.2-3.3,1.5-8.9,1.5-8.9l-1.8,0.5c-0.7-0.5-0.7-1,0-1.3c-1.5,0-2.5-0.7-3-2.1c2.3-0.5,1-2.4,3.3-5.1c-1,0.7-1.7,1.1-2.9,2.8
		c0.6-1,0.8-2.2,5.8-5.5c-6,1.3-9.4,7.3-14.9,6.8c-3.9-3.3-4.3-5.6-0.3-6.7c-1.8-0.1-4.3,0.4-5.7,3.8c1-3.8,7.4-8,11-8
		c1.6-0.4,0.8-1.9,3-2.7c-1.6-0.3-2.5-1.4-2.8-3.2c-0.3-2.1-0.2-3.5,1-2.7c-0.7-1.2-1.5-1.5-2.5-0.3c-1-1.2-1-2.1,0.2-2.8
		c-4.5,0.2-6.9,0-5.2-1.1c-7.8-0.1-5,3.7-17.3,8c8.4-5.6,8.2-9.1,13.4-9c-1.3-0.8-2.5-2.5-1.9-3.7c3,1.1,5.4-0.3,7.2-3.1
		c-1.5,0.5-2.7,0.6-3.3-0.4c0.7-3.6,3.6-3,4.6-5.8c-3.1,1-5-1.3-4.3-3.8c4.8,0,6.5-2.2,4-6.4c0,0,3.3-1.1,6.9,7.7
		C116,73.3,111.5,68.5,97,61.3c18.8,6.9,20.1,15.2,20.9,16.8c1.4,2.8,1.1,7.9,2,11.6c-6.8-2.9-3-3.6-5.4-5.9c1.2,2.7-0.3,4,0.6,5.4
		c-1.3-0.7-2.3-3.1-5.6-1.8c4.6-1.3,2.3,2.3,6.3,3.3c-3.8-0.1-2.3,2.3-3.8,3.6c8.7-4.6,7.6,1.8,11.4,0c-1.6-7.7,0.5-4.4-0.7-8.3
		c-0.9-3-3.2-8.9-5.8-13.6c3.5,3.8,4.5,7,4.5,7c-0.2-2,0.4-3.6,1.8-4.4c-1-5.2-1.2-8.2-0.1-7.7c-1-1.2-1.7-0.7-2.1,1
		c-2.4-4.3-2.3-6.6,1.1-6.4c-5.4-3.4-15.4-7.6-25-10.1c9.3,0.4,22,4.7,27.4,7.2c-1.8-2-2.8-2.9-2.1-4.2c2,0.9,1.4-1.1,0.5-3.5
		c-7.8-1.9-18.3-0.8-20.3-9.8c8.2,6.6,12.8,0.9,23.6,3.8C125,44.1,125.4,43.2,126.8,42.6z M94.9,72.8c0.5,0,1,0,1.5,0
		C96.1,72.7,95.6,72.7,94.9,72.8z M150.7,38.7c0.7-1.1,0-2.6-1.6-4.2c2.8,1.5,5.8,2.3,9,1.9c-0.4-0.1-2.7,0.4-3.7,1.8
		c2-0.1-1.7,3.3,3.7,5.2c-2.3-0.8-4.1-0.6-4.2-2.8c-0.1,1-0.5,1.7-0.1,2.9c-2.5-1.6-4.4-1.7-3.6-2.9c-0.7,0.5-1.4,1.4-0.7,2.2
		c-1-1.7-2.6,0.2-3.2-3.2c-1.1,3.2,1.1,2.9-0.4,5.8c2.2-1,3.9-1.2,6.2-0.8c-0.5,1.2,5.4,2.3,4.7,3.9c0-5.1,7.6-4,9.4-0.6
		c6.8-8.3,6.3-2.7,5,0.6c3.8-4.8-0.1-6.4,1.1-9.2c0,5.1,5.2,1.7,7.7,7c1-6.7-2.8-3.1-2.8-10.9c2.8,7.7,7.4,7.1,8.4,12.7
		c4-4.2,9.6-10.4,10-1.2c-0.7-1.9,2.5-5.2,5.2-6.1c1.3,4.9,13.6,0.7,5.6,7.4c2.4-1,4.1-2.3,4.4-4.2c3.6-3.2,7.1,1,10,2
		c-4.8-2.4-3-3.8-3.3-6.7c4.2,8.4,6.6,5.8,12.1,10.8c-4.3-4.2-6.4-7.6-4.3-9.1c2.1,3.3,5.6,2.9,7.6,4.6c1-0.7-0.1-2-1.4-3.3
		c2.3,1.4,3.9,3.1,4.3,5.1c0.8-2,2.6-2.1,4.8-1.6c-2-1-2.1-4.3,0-4.5c3.3,0.1,7.2,3.7,10.8,5.3c-4.3-2.5-5.2-3.7-4-9.3
		c3.6,2.7,4.6,6.1,8.6,7.4c-6.8-7.1,7.5-6.6,8.4,1.3c-1.6-5.2,2.2-5.5,3.8-6.4c8.2,0.1,4.2,3.7,2.7,5.6c1.5-0.8,5.8-3.9,5.9-4.8
		c0.8,1,1.5,1.2,2.2,5.3c-0.4-2.9,2.2-3.9,3.7-3.5c2.3,0.9,4.1,2.9,5.6,5.7c-1.6-4.5,0.7-1.3-1.1-8.4c0.9,3.5,3,3,5.1,8.3
		c-0.4-3.6-1.1-4.1-0.8-6c1.3,2.2,2.9,3.4,5.2,5c-2.9-2.9-3.6-7.1-3-10c0.6,3.5,2.4,4,2.8,7.3c0.7-3.1-2-6,0.8-7.3
		c0.2,3,3.7,1.4,2.2,6.8c2.8-2,1.9-7.2-0.6-11.7c3.5,2.6,5.9,7.4,5.9,11.7c1.2-4.1,4.9-6,8.5-8c-1.8,3.1-1.2,4.9-2.9,6.5
		c1.4-0.2,8.4-3.7,8.3-6.6c0.9,2.6-1,6-0.6,7.5c0.8-3.6,2.7-4.4,2.6-5.5c-0.2,2.2,1.4,2.9,0.8,6.6c0.7-1.5,3.2-3,3.1-2.6
		c-0.5,2.6,1.7,2.9,1.4,5c1.9-2.7,4.1-1,3.9-4.4c3,1.5,3.6,4.4,3.3,7.7c-0.1-3,2.9-2.4,3.7-6.5c1.8,1.2,2.6-0.9,4.8,1
		c-0.3-2.2-0.3-2.7-1.1-6.4c1.5,3.7,1.9,6.9,2.4,9.8c-1.6-14.9,1.8-15.9-1.6-24.1c1.8,8.3,0.1,6.9-0.1,11.9
		c-1.9-5.7-2.6-13.4-9.2-17.3c4.1,4.9,5.4,7.8,2.9,9.8c-1.1-3.4-8-1.9-10.2-7.4c1.2,5.2,7.6,6.4,3.9,8c-2.7-4.6-7.9-3.4-6.4-12.1
		c-2.7,5.9,0.1,8.5,0.6,12.8c-3.7-8.8-6.4-12.6-10.7-16.1c5.4,7,6,16.9,1,15.1c0.4,2.2-0.2,2.9-1.2,4.3c2.1-4.5-4.3-3-7.4-11.9
		c1.4,6-3.5,4.8-5.3,8.6c-0.6-1.8,1.6-6.2,0-8.3c1.3,3.9-3.8,8.5-7.5,9.6c-0.4-5.3-1.5-8.5-3-10.7c2.7,5.4,1.8,10-8.4,12.4
		c-1-3.7-1.2-7.8,3.8-12.6c-7.4,5.1-4.9,8.9-8.7,13c0.8-0.5-2.4-1.9-3.6-3.7c-1.1-1.7,0.5-5.9-3-8.2c4.5,6-2.6,11.8-7.9,10.9
		c-0.4-1.5-2.1-1.4-1.9-5c-0.7,3.5-3.3,3.7-4.6,2.6c-2-2,1.1-5.3,1-11.2c-0.9,7.1-3.7,7.7-9.3,13.8c3.7-4.1,4.2-7.8,6.1-14.9
		c-2.8,10.4-9.2,10.5-13.1,14c-3.8,3.4-1.7,6.1-7,7.9c4.5-6.8,1.2-7,5.7-21c-3.1,10-7.2,5.4-9.2,18.4c-2.1-5.3,1.6-7.8,2.2-13.6
		c-1.3,5.2-3.4,3.7-7.1,5.9c-1.3-2.8,1-3.3,0.4-9.4c-0.2,5.2-2.4,9.3-5.4,12.8c-1.5-4,0.1-10.2-2.4-14.2c1.2,5.2,0.1,5.3-0.5,11.1
		c0.1-7.4-1.3-7.9-0.1-14.1c-2.2,8.9-8,10.2-3.2,20.7c-5.4-4.5-6.7-8.5-6.1-9.7c0.8-1.6,1.2-2.9,0-5.4c1.8,3.6-0.4,3.5-0.8,7.1
		c-0.3,2.7,4.2,7.7,4.4,11.8c-7.3-14.9-12.6-7.3-13.2-24.3c-0.2,2.5-1.5,15.2,7.9,20c-11.4-4.6-7.3-18.9-12.5-23.1
		c4,5.5-0.1,12.9,3,18.1c-2.8-3.8-2-4.5-1.8-10.5c-0.7,2.6-3.7,9.2,2,14.7c-5.7-4.2-5.4-9.3-12.3-13.9c4.8,5.1,5.4,7.6,7.6,12
		c-4.7-7.7-9.9-14.3-13-16c8.1,8.4,3.6,11.2,8.2,19.8c-12.3-8.7-11.2-19-17.3-23.2c2.5,1.7,6.3,12.9,2.3,19.3
		c-1.1,1.7-2.5,3.8-4.4,5.3c-0.7-1.5-1.4-2.4,2.5-9c-5.5,4.8-4.1,8.4-8.5,12.1c1.6-4,0.2-4.6,1.1-7.3c0.7-2.3,4-5.2,5.1-13.9
		c-0.9,6.6-5.7,13-10.1,12.9c0.8-2.8,0.5-4.5,0-5.8c0.4,3.2-0.2,5.2-2.3,5.3c0,0-0.4-2.4-2-3.6c-1.6-1.2-1.8-3.9,0.9-8.2
		c-4.5,5.1-2,8.6-3.8,10.9c-3.2-4.7-3.2-4.2-3.8-6.9c-0.7-3.1-4-2.2-4.3-7.9c0,2.7,0.3,4.4,2.1,5.9c1.8,1.5,1.2,3.9,0,5.3
		c-1.4-1.3-3.2-3.3-4.6-4.8c1,1.6,1.5,2.6,0.7,2.7c-3.3-1.8-6.5-4.7-8.3-8.5c0.9,3.4,3.3,6.2,5.2,8.6c-2.1-1.2-4.4-3-5.5-5.1
		c1.4,3.2,2.9,4.3,6,7.4c0,0-4.4-1.7-7.8-2.8c2.9,1,8.3,5.3,10.1,7.2c-6.3-4.1-15.5-2.9-19.4-12.3c5,11.3,8.9,9.5,16.7,15
		c-3.8-2.4-4.2-0.2-9.6-4.4c0.9,1.1,3.3,3.5,6.2,4.7c-3-1-4-1.4-5.4-0.6c2.8-1.2,3.4,2.8,8.6,7.3c-0.8-1.7,0.3-1.3-0.1-3.2
		c0.2,2.9,4,4.2,4.9,6.9C141.8,36.3,151.5,37.4,150.7,38.7z M121.8,99.2c0.5-0.8,0.7-1.4,0-1.9c-2.7-2.3-5.9-2.4-9.2-1.2
		C116.6,95.5,119.7,96.6,121.8,99.2z M117,100.5c-1.1,0.2-3.1-0.3-5.9,0.4c4.5,0.3,3.1,2.2,5.6,2.8c-0.2,0.3-0.5,0.6-1,0.8
		c0.9,0.9,1.4,2.4,4.8,3.7c-0.9-1.6,1.3-3.8,1.3-3.8c-0.9-1.2-1.2-3.1-1.2-4.1c-0.8-2.1-4.6-1.6-6.4-1.1
		C114.2,99.2,116.3,99.7,117,100.5z M111.9,119.1c2.3,2.4-2.1,2.3-3,3.4c-1,1.2,0.8,4,3.7,3.1c4-1.3,5.8-4.2,8.4-4.7
		c-2.7,0-4.7,3.9-10,3.3c5.3,0.2,3.6-2,6.9-2.9c-2.3,0.3-3.4,2.1-5.5,1.2C112.8,121.4,113.8,120.6,111.9,119.1z M342.4,14.8
		c4.5,11.1-1.5,21.7,5.3,33.8C343,32.6,348.2,27.3,342.4,14.8z M349.6,46.4c-2-4.1-1-12.4-0.5-12.4c3.5,1.9,1.9,6.5,5.3,9.6
		c-2.2-3.2-2-9.5-0.3-9.9c1.8,1.5,3.2,12.2,3.8,15.7c-1-8,1.1-14.3,5.1-6c-0.7-1.7,1.6-7.9,3.3-9.9c1,1.6,1.1,6.1,1.2,10.7
		c0.1-1.9,5.3-11.1,6.9-12.2c-1.1-0.5-0.9-0.9-2.1-2.2c0.5-1,1.3-1.8,0-3c2.1-3.1,0.4-8.9,4.6-10.8c-5,1.1-2.3,8.8-16.3,11.5
		c2.1-4.8,6.1-4.8,8.6-9.8c-0.6,2.4-11.2,7-15.4,9.8c1-1.2,4.6-7.5,4.9-11.8c-1.1,7.2-12.3,16.1-12.3,16.1
		C346.3,34,346,42.3,349.6,46.4z M432.9,18.3c0,5.6,6.2,7.5,0,16c1.7,1.8,1.3,4.7,0,8.1c2-1.2,4-4,4.7-7c0.2,4.1,1.1,8.1,2.7,11.9
		c0.5-9.7,8-10.6,8.4-1.9c5.2-6.1,8.8-2.7,9.6,4.1c0.7-2.3,3.1-1.6,3.6-5.2c0.3,0.9,0.3,1.9,0,3.6c1.6-2.4,1-3,4-5.4
		c3.4,1.5,6.5,1.6,9.4,0.7c2.1,0.6,2.5,2.1,1.1,3.8c1.8-1,2.9-2.2,2.3-4.1c5.8,0.5,8.9-1.8,9.1-6.7c-0.7,5.4,2.4,8.5,4.4,10.7
		c-2.3-5.4,0.2-6,0-8.9c2.6,2.7,6.4,3.9,7.5,7c-0.3-3-2.2-4.9-2.6-8.4c5.1,2.9,6.4,5.4,9.3,6.7c-6.8-6.3-3.2-7.6-6.4-8.6
		c1.9-1.4,0.3-3.2,3.3-2.9c-1.6-3-8.1-3.1-5-8.6c-0.4,0.4-0.8,1.3-2.1,1.5c-1.2-1.6-0.1-3.8,1.9-6.2c-4.7,3.7-6.9,7.9-8.3,11.1
		c-1.7-1.5,0-4-0.6-8.2c-0.4,4.6-2.5,8.5-5.2,11.2c-1-2.6-7.3,1.6-8.9-6.3c-0.6,2.6,0.9,4.7,0.6,6.7c-4.6-9.6-9.1-6.3-5.4-15.2
		c-8.6,10.2,7.2,9.6-2.4,17.1c-3.6-0.2-5.5,1.6-6.5,4.7c0.6-3.1-7.8-2.7-0.8-13.1c-5,1.4-5.6,10.3-20.7-2.9c2.2,3.4,3.1,5.9,2.1,7.5
		C438.9,24.2,434.1,23.3,432.9,18.3z M378.4,23.9c0.4,5.4,5.4,5.2,7.3,8.5c-4.1-2.2-7.3-2-9.1,3c2.8-4.3,4.7-3,4.9,1.3
		c-5.2,0.7-4.5,5.1-11.2,9.8c6-2.9,7.4-7.5,13.9-6.9c0.9,3.4-0.2,4.9-2.4,7.8c3.4-2.7,3.3-4.1,6.8-6.8c2.9,1.1,1.3,4.6,2.9,7.1
		c-1.2-4.1,2.3-7.2,2.3-7.2c1.7,1.8-0.3,4.5,1.9,6.7c-1.6-3.6,4.3-2.7,8.1-4.8c1,3.6,3.2,3.9,3.9,7.1c0.4-2.7-1.6-5.6-0.6-7.6
		c1.4,1.8,2.3,1.3,2.6,5.5c0.8-5,1.7-6.3,2.6-8c2.9,3.1,3.8,4.4,4.4,9.1c0.6-6.5,1.6-7.7,2.2-10.1c2.8,1.8,2.1,6.3,2.5,8.7
		c1-5.1,2.1-8.1,1.2-8.3c3.9,1.6,3.7,6.7,7,8.1c-3.9-3.7-0.8-4.8-3.7-8c0.7-0.1,1.9,1.9,3.7,3c-2.9-4.4-2.4-6.5-1.2-13.4
		c-1.4,3.6-4.2,6-6.9,7.5c-1.9-6.3,4.5-7.4,2.9-15.9c-0.3,6.2-4.3,4.8-6.8,13.4c-4.2-3.9,0.4-4.8-2.8-10.8c0.9,3.5-2.5,9.6-5.6,11.7
		c1.8-3.5,3.1-7.5,0.6-13.7c0.3,4.5,0.2,8.6-5.1,10.5c-5.3-1.7-4.6-7.6-10.4-10.7c4.6,4.6,0.7,9,0,12c-1.4-6.4-3.2-9.3-6.1-10.9
		c2.7,2.7,1.1,3.6,0.4,6.1C383.3,24.8,380.1,29.9,378.4,23.9z M511.5,23.2c-1.1,1.4-6.4,6.1-6.6,9.3c1.7,0.8,3.9,6.4,4.3,7.5
		c-1.2-11.3,1.9-12,3.3-16C511.9,24,511.5,23.2,511.5,23.2z M515.2,45c-2.7-4.6,0.9-6.4-0.8-11.4c8.4,4,5.6,10.1,12.1,12.8
		c-3-2.6,0.7-7.7,5-7c1.2,6.1,4.9,2.8,5.4,7.2c1.6-6.7,6.9-6.7,9.6-8.3c0.4,3.6,3.2,3.9-0.3,11.7c3.2-6.4,6.4-5.9,6.5-12.7
		c2,6.3,4.5,6.1,7.2,8.7c-5.2-6.1-0.5-8,2.6-10c2.5,5.4,6.4,3.4,6.9,11.8c-0.1-4.3,1.6-10.6,5.3-11c1.1,1.9-1.3,5-0.4,8.6
		c0.2-4.2,2.7-6.9,6.1-8.7c2.6,2.7,3.6,5.9,6.8,7.8c-5-5.6,1.7-8.1,2.3-13c2.9,4.2,0.2,9.5,3.7,12.1c-2.8-3.4,1.4-7.4,2.7-14.3
		c-3.4-2.4-6.1-2.8-5.5-10.4c-0.4,2.1-2.2,2.7-2.5,5.3c-1-2.6-4.7-3.9-5.9-3.8c2.1,0.4,7,5.8,4.4,6.8c-6.2,2.1-11.2,1.3-8.2-3.7
		c-2,0.8-4.3,3.7-5.8,7c-0.9-8.3,4.8-9.1,3.8-15.7c0.2,7.4-9.2,8.7-13.9,13.4c-1.3-4.6,3.8-6.1,3.8-10.2c-1.2,5.2-18.1,17.3-17.6,6
		c-0.8,1.8-0.9,4.2-0.6,5.6c-3.5-2.1-5.9-4.3-4.9-6.4c-1,0.8-0.8,2.7,0.8,5.8c-5.3-0.8-2.8-6.2-6.8-7.6c2.9,2.7-0.3,4.2,0.8,6.6
		c-7.6,4.8-10.3-2.1-7.1-4.8c-3.2,2.7-0.8,5.1-3.9,7.8c-4-3.3-2.8-7.9,0.3-13.1c-4.4,3.2-6.8,7.3-6.1,13.1
		c-1.4-3.7-2.6-6.9-3.3-10.1c-0.2,5.8-1.9,10.1-5.7,12.7C515.1,37.5,511.8,40.6,515.2,45z M595.5,21.6c8.5,4.7,0.2,11.6,2.1,16.4
		c-0.1-5.6,3.4-3.7,4.9-5.6c1.7,5-1.9,12.2,2.4,16c-0.2-0.1-0.3-0.5-0.3-0.7c-0.1-0.3-0.2-0.5-0.3-0.8c-0.2-0.5-0.3-1-0.4-1.6
		c-0.1-0.9-0.1-1.8,0.1-2.7c0.5-2,1.5-3.9,2.2-5.8c0.2-0.6,0.4-1.1,0.6-1.7c0.1-0.3,0.1-0.6,0.2-0.9c0-0.1,0-0.1,0.1-0.2
		c0.1-0.1,0.3-0.2,0.4-0.1c0.2,0.1,0.3,0.5,0.4,0.6c0.1,0.3,0.2,0.5,0.3,0.8c0.9,2,1.4,4.2,1.5,6.5c0.1,0.7,0.1,1.2,0,2.2
		c0.3-2.1,0.1-4.2,1.5-5.7c1.4-1.5,3.7-2.1,5.6-1.6c-0.1,0-0.4,0.4-0.4,0.5c-0.1,0.2-0.3,0.3-0.4,0.5c-0.2,0.4-0.5,0.8-0.7,1.2
		c-0.4,0.8-0.6,1.7-0.7,2.5c-0.2,1.8,0,3.6,0.9,5.2c0.1,0.1,0.6,0.9,0.6,0.4c0-0.3,0-0.5,0-0.8c0.1-0.5,0.2-0.9,0.5-1.2
		c0.7-0.8,1.7-1.3,2.7-1.7c1.3-0.6,2.7-1.2,3.9-2c1.5-0.9,2.8-2.1,3.9-3.5c-1.6,3.5-2,6.7-2.4,9.7c2.6-6.8,5-3.3,10-8.1
		c-0.7,2.5-2.7,4.3-5.6,6.7c6.2-2.9,10.3-0.9,15.3-10c1.3,4.7,3.5,7.1,1.4,11.4c1.4-1,3.5-2.5,3.3-9.5c3.3,6.9,2.3,6.9,2.9,9.5
		c-0.2-9.1,17.8-12.2,12.7,0c12.7-10.9,4.2-13.1,6.9-23.2c-1.1,2.2-4.4,3.2-4.6,7.2c-4-4.2-1.3-12.5-3.3-16c1.1,7-3.7,10-7.6,11.9
		c-1.6-5.4-6.2-6.6-3.3-9.7c-3.1,2.6,0.8,7.2-0.6,8.3c-4-3.9-11-4.9-11.9-11.7c-1.4,6.6,5.1,9,4.1,15.4c-3.3,0.2-5.2-9.6-7.6-12
		c2.2,4-2.1,4.3-5.6,11.3c-0.1-5.7,4.4-6.6,3.3-14.3c0.6,8.9-25.7,20.8-14.9-1.4c-5.1,6-4.3,9.5-7.7,15c-2.9-4.9-1.9-9.3-9.3-11.6
		c6.8,3.6,2.9,5.9,3.2,12.2C602.9,25.5,600.4,22.6,595.5,21.6z M816,61.6c-1.4,0.8-2.7,1.5-4.1,2.3c-1.2,0.6-2.3,1.3-3.3,2.3
		c-1.1,1.1-1.8,2.6-2.7,3.9c-0.9,1.3-2.3,2.4-3.8,2.5c0.6,3.8,0.1,7.6-1.4,11.1c5.4-7.3,13.2-12.6,21.9-15c10.5-2.9,22.5-2,32.3-6.9
		c-6.2,5.6-16.1,4.9-22.6,10.1c3.1-1.4,6.7-2.2,10.1-1.9c-3.3,0.8-6.4,2.3-9,4.4c-1.3,1.1-2.5,2.3-4,3.1c-1.5,0.8-3.1,1.8-4.6,1
		c2.3,0.5,4.7-0.2,6.9-1.1c2.2-0.9,4.3-2.1,6.5-2.8c2.3-0.7,4.9-1,7,0.1c-5.1,1.6-10.2,3.2-15.1,5.5c-4.8,2.3-9.4,5.3-12.9,9.3
		c-2.4,2.8-4.3,5.9-6.2,9.1c-1.9,3.2-3.7,6.5-5.6,9.7c3.8-5.6,8.5-10.6,13.9-14.7c7.5-5.7,16.6-10,25.3-13.8
		c-10.7,5.5-20.3,13.6-28.1,22.7c7-6.3,15.7-10.7,25-12.5c3.7-0.7,7.6-1.1,11.2-2.1c6.2-1.7,12.4-5,17.9-8.5
		c-6,3.4-11.7,7.2-17.1,11.4c-4,3.1-7.9,6.5-11.7,9.9c-3.3,2.9-6.4,5.9-9.6,8.8c8.8-5.8,17.8-11.4,26.7-17.2
		c-9.5,8-19.4,15.5-29.7,22.5c-1.1,0.8-2.3,1.6-3.7,1.8c-1.2,0.2-2.5-0.1-3.5-0.9c0.1,1.1,0.2,2.2-0.3,3.2c-0.5,1-1.8,1.6-2.7,1
		c-0.3,2.6-1.8,5.1-4,6.6c1.2-0.8,2.9,0.4,3.1,1.9c0.2,1.4-0.7,2.8-1.5,3.9c-1.8,2.6-3.8,5.2-5.8,7.6c-1.5-3.2-0.6-7.4,2.1-9.6
		c-1.7-1.1-2.8-3.1-2.8-5.1s1.1-4,2.8-5.1c-0.2-0.2-0.4-0.5-0.6-0.7c1.3-0.8,2.6-1.6,3.8-2.5c-1,0.1-1.9-0.9-1.9-2
		c0-1,0.8-1.9,1.7-2.4c0.9-0.5,1.9-0.7,2.9-1c7.2-1.8,13.7-5.9,18.6-11.4c-2.7,3.1-6.7,4.8-10.8,4.9c-0.9-2,0-4.4,1.6-5.9
		s3.7-2.2,5.8-2.9c3-1,6-2.1,9.1-3.1c-7.7,1.1-15,4.4-20.8,9.5c-2.9,2.5-5.4,5.4-8.5,7.5s-7.2,3.4-10.8,2.1c3.2,1.6,5.3,5.1,5.2,8.7
		c-0.2,3.6-2.6,6.9-6,8.2c1.2,2.4,2.5,4.7,3.7,7.1c-0.8-0.4-1.6-0.7-2.3-1.1c1.7,4.5,2.4,9.3,2.1,14.1c0.5-2,1.8-3.8,3.6-4.8
		c0.3,1.6,0.6,3.2,0.9,4.9c0.2-1,1.7-1.4,2.6-1.1c-1.8,4.3-4.6,8.1-8.1,11.1c4.3-0.3,8.5-1.7,12-4c-1.1-0.2-2.2-0.4-3.3-0.6
		c1.5-0.2,3-0.4,4.5-0.6c2.9-2.7,6-5.3,9.1-7.7c-2.4,0.7-4.7,1.4-7.1,2c2.4-2.8,6-4.6,9.7-4.9c-2.6,0.5-5.5-0.2-7.6-1.9
		c0.5-1.4,2.3-1.6,3.7-1.6c5.5,0.1,11,0.2,16.5,0.2c-2.6,1.7-5.1,3.6-7.6,5.5c4.3-0.9,8.5-2.3,12.5-4.2c-2.6,4.3-7.4,6.6-11.9,8.8
		c-9,4.3-18,8.6-27,12.8c1.5-0.2,3.2,0.3,4.3,1.4c5.5-2.5,12.4-1.5,16.9,2.6c-0.3-1,0.4-2.1,1.3-2.6c0.9-0.5,2-0.6,3.1-0.6
		c1.1,0,2.1,0.1,3.2-0.2c1-0.3,1.8-0.8,2.6-1.4c4-2.7,8.4-5.3,12.4-8.1c3.8-2.6,7.6-5.3,10.7-8.6c2.4-2.6,4.4-5.6,6.6-8.5
		c2.2-3,5.5-7.3,7.4-11.4c-2.5,4.5-6.9,9.4-11.2,11.1c-5.3,2.1-11.5,6.9-14.1,9.2c2.9-7.7,8.6-8.1,12.2-11c1.5-1.2,5.7-8.8,7.2-10.8
		c1.9-2.5,3.3-5.5,5.5-7.7c2.6-2.6,6.2-4,9.8-3.9c-3.8-0.3-7.6,0.9-10.5,3.2c-2.3,1.9-4,4.3-5.9,6.6s-4.3,4.4-7.1,5.2
		c6.2-7.6,11.7-15.6,16.7-24c-8.2,10.6-16.7,21.5-28,28.6c6.3-4.5,10.7-11.1,14.8-17.7c6.3-10.1,12.1-20.5,17.3-31.2
		c-5.3,8.7-10.7,17.3-17.3,25.1c-6.6,7.8-14.5,14.5-23.7,18.8c17.7-10.2,31.6-26.9,38.3-46.2c1.4-4.1,2.5-8.2,4.4-12.1
		c1.8-3.9,4.5-7.5,8.3-9.6c-7.6,1.9-14.1,7.8-16.9,15.1c1.6-3.8,0.3-6.6,0-10c-0.3-2.9,0.4-5.8,1.8-8.3c1.4-2.5,3.6-4.6,6.1-5.8
		c-3.6,1-6.6,3.5-8.7,6.6s-3.7,6.4-5.1,9.8c2.6-9.2,6.4-18.1,11.2-26.4c2.3-3.9,4.9-7.7,8.1-10.9c3.3-3.2,7.3-5.7,11.7-6.6
		c-6.1,1.1-11.5,4.6-16.1,8.7s-8.5,9-12.8,13.4c-4.3,4.5-9,8.7-14.7,11.1c-4.7,2-9.7,2.9-13.9,5.7c-0.3-1.3,0.6-2.6,1.6-3.3
		c1.1-0.7,2.4-1.1,3.6-1.5c3.7-1.3,6.9-3.7,10.1-6c11.4-8.8,22-18.7,31.7-29.3c-5.8,5.4-12.9,9.1-20.2,12.2
		c-6.8,2.9-13.4,5.8-20.4,8.3c3.1-2.4,6.6-4.4,10.3-5.9c2.6-1,5.3-1.8,7.9-3.1c2.5-1.2,4.9-3,6.3-5.5c-1.3,1.9-3.3,3.2-5.5,4.2
		s-4.4,1.5-6.6,2c-11.1,2.7-21.9,5.9-32.9,9.4c4.4-2.7,9.2-5,14.1-6.8c4.4-1.6,9-2.9,13.4-4.6c7.2-2.8,13.7-7,19.7-11.9
		c-5,3.8-10.8,6.4-16.8,8.3c-6,1.9-12.2,3-18.4,3.9c-4.9,0.7-10.1,1.7-14,4.8c1.3-2.6,3.9-4.4,6.6-5.5s5.7-1.6,8.5-2.4
		c6.7-2.1,12.6-6.4,16.7-12.2c-3.2,4.3-8.2,7-13.4,8.6s-10.5,2.5-15.6,4.1c-5.2,1.6-10.2,3.9-13.6,8.1c1.5-2.5,3-5,4.9-7.2
		c1.3-1.5,2.9-2.9,4.8-2.9c-2.2-0.1-4.2,1.2-5.8,2.6s-3,3.2-4.9,4.3c-1.6,1-3.4,1.6-5.1,2.6c-1.7,0.9-3.2,2.3-3.7,4.1
		c-0.6-2.4,0.1-5.1,1.8-6.8c1.2-1.2,2.7-2,4.1-2.9c1.7-1.1,3.3-2.6,4.5-4.2c-0.7,0.9-1.8,1.5-3,1.9s-2.3,0.6-3.4,1
		c-3,0.9-5.6,3-7.4,5.6c-0.8-3.6,0.9-7.7,4.1-9.5c2.4-1.4,5.3-1.6,8-2.4c3.2-0.9,6.1-2.6,8.4-4.9c-1.8,2.1-4.6,3.3-7.3,3.9
		c-2.7,0.7-5.5,0.9-8.2,1.8c-3.6,1.2-6.9,3.3-10.2,5.2c-3.3,1.9-7,3.5-10.8,3.4c1.9,0,3.8-0.9,5.3-2.1c1.5-1.2,2.9-2.6,4.4-3.8
		c2.4-1.9,5.2-3.2,7.9-4.7c2.7-1.5,5.3-3.3,7-5.8c-2.5,3.4-6.5,5.3-10.6,6.4c-4.1,1.1-8.3,1.4-12.4,2.2c-4.1,0.8-8.4,1.9-11.6,4.6
		c3.8-1.9,6.8-5.5,7.9-9.6c-0.6,1.3-1.4,2.5-2.4,3.6c-0.6,0.7-1.4,1.4-2.3,1.4c-1.1,0-1.9-1-3-1.1c-1.7-0.3-3.1,1.5-4.8,1.4
		c-0.8-0.1-1.6-0.6-2.2-1.2c-0.7-0.7-1.4-1.6-1.7-2.6s-0.1-2.2,0.7-2.9c-1.3,1.3-2.1,3.2-2.1,5.1c0,1.9,0.8,3.7,2.2,5
		c-2.4-1.4-4.1-4-4.4-6.8c-0.3-2.8,1-5.6,3.1-7.4c-1.9,0.3-3.3,1.8-4.2,3.5c-0.9,1.7-1,3.7-2.1,5.3c-4.9,6.7-11.3,12-17.9,13.4
		c-1.5,0.3-3,0.1-4.4,0.7c-1.4,0.6-2.6,1.9-2.5,3.4c1.4-2.3,4.9-2.9,7-1.3c-3.6,2-7,5.6-10.8,8.8c6.4-2.9,16-6.1,23.2-10.9
		c-2.2,1.6-3.8,4-4.3,6.6c2.6-1.9,6.2-2.5,9.3-1.4c4.3-2.5,9-4.3,13.9-5.1c-4.7,1.7-4.2,4.5-7.2,5.2c1.7,0.7,3.6-0.6,5.2-0.6
		c-0.3,2.1-1.5,4-3.2,5.3c5.5-3.9,12.3-6.1,19.1-6c2.5,2.5,4.7,5.3,6.1,8.5c0.5-2,0.2-4.3-0.8-6.1c0.7,1.4,2.2,2.3,3.8,2.7
		c1.5,0.5,3.1,0.7,4.5,1.5s2.6,2.2,2.4,3.8c4.3-1.2,8.9-1.1,13.3-1.1c4.5,0,9.1-0.2,13.2-2.1c-6.9,3.3-14.3,5.5-21.9,6.7
		c-1.6,0.2-3.3,0.4-4.9-0.1s-2.8-2.2-2.5-3.8c-1.4,1.8-2,4.2-1.8,6.5c0.1,1.2,0.5,2.3,0.6,3.4c0.3,3.1-1.4,6.3-4.1,7.9
		c0.8,0,1.4,0.5,2.2,0.8c1.7,0.7,3.8,0.2,4.9-1.2c0.2-1.7,1.7-2.9,3.1-3.7C810.8,62.9,813.3,61.8,816,61.6z M677,26.8
		c-2.2,6.7,3.3,10.7,1.2,18.5c3.9-4.6,12.2-2.5,11.8,1c1-3.3-1.2-2.3-2-5.9c7.3,3.3,3.1,5.2,6,8.1c-1.9-5.2,5.7-2.6,6.3,0.8
		c0.8-2.9,3-4.4,2.2-7.5c3.1,1.8,5.7,4.6,7.2,7.9c-0.5-2.7-1-5.4-1.4-8.1c0,1.4,1.4,2.4,2.7,2.6c1.3,0.3,2.8,0.1,4.1,0.4
		c1.3,0.3,2.6,1.5,2.4,2.9c2.1-1.4,4.9-1.5,7-0.3c0.3-1.8,2.2-3.3,4-3c-2.1,0.1-4.3,0.1-6.4,0.2c19.4-5.4,23.4-21,32.5-23.3
		c-8.4,1.8-18.3,15-29.6,17.4c6-2.2,8.9-10.7,17-11.3c-10.7,0.2-17,11.3-28.9,9.8c10.9-22.2,27.1-9.5,31.2-19.5
		c-2.8,6.3-11.8,1.2-24.7,6.8c-5.5,2.4-6.2,3.2-11.2,7.9c1.1-10,10.7-8.6,8.6-21.2c2,13.7-11.9,11.2-21.5,20.3
		c6.2-10.8-1.8-14.8-4.8-15c6.5,1.7,3.9,8.2,2.2,10.7c-1.4-0.6-2.5-2.1-2.5-3.6c-0.5,2.3-1.7,4.4-3.4,6c0.4-3.4,0.2-6.8-0.6-10.2
		c0.6,3.5-1.7,7.3-5.1,8.5c0.8,0.4,1,1.4,0.7,2.2c-0.2,0.8-0.7,1.5-1.1,2.3c-0.7,1.6-0.7,3.5,0.2,5C679.7,33.9,676,31.6,677,26.8z
		 M816.7,78.2c-1,0.5-1.9,0.9-2.9,1.3c-1.9,0.7-3.9,1-5.9,1c1,0.5,1.3,1.9,0.8,2.9s-1.4,1.7-2.5,2c-1.1,0.3-2.2,0.3-3.3,0.3
		c1.5,5.3,2,11,0.7,16.3c0.9-3.4,2.3-6.6,4.1-9.6c4.2-7.1,10.4-12.7,16.5-18.2C821.9,75.2,819,77.1,816.7,78.2z M814.3,169.7
		c-2.8,0.2-6,0.4-8.1-1.5c-1,0.5-1.9,0.8-2.9,1.2c0.2,0.8,0.3,1.6,0.5,2.4c3-0.3,6-0.5,8.9-0.8c1.3-0.1,3.2-0.3,4.5-0.4
		c4-0.4,8.4,0,12.3-0.6C824.9,170.3,818.9,169.3,814.3,169.7z M858.5,155.5c-3.2,2.8-6.8,5.1-10.8,6.4c-2.5,0.8-4.1,2.8-6.4,4
		c-1.8,1-2.7,2.2-5.7,3c13-3.2,24.7-11.5,32.1-22.6C865,149.5,861.7,152.8,858.5,155.5z M805.4,265.4 M803.1,199.2
		c0.5,1.3,0.2,2.8,0.2,4.2c0,1.4,0.7,3,2.1,3.3c-0.7-1.3-0.1-3,1-4c1.1-1,2.5-1.6,3.8-2.3c1.3-0.7,2.6-1.6,3.2-3
		c-1.9-0.9-3.4-2.6-4-4.6c-0.5-1.4-0.5-2.9-1.2-4.2c-1.2-2.3-3.8-3.2-6.2-4.1c0.8,3.3,1.6,6.5,2.4,9.8c-0.5-0.7-0.9-1.3-1.4-2
		c-0.8,1.3-1.6,2.5-2.3,3.8c-0.1,0.2-0.5,0.6-0.5,0.8c0,0.3,0.3,0.2,0.5,0.2c0.5,0,1,0.2,1.5,0.6
		C802.5,198.1,802.9,198.6,803.1,199.2z M806.6,256.2c0.2,0.3,0.3,0.7,0.3,1c0.1,1.2,0,2.4-0.3,3.5c0.6-0.3,1.4,0.4,2.1,0.2
		c0.4-0.1,0.7-0.5,0.9-0.9c0.9-1.9,1.3-4.1,0.9-6.2c-1.3,1.1-3.1,1.7-4.9,1.6c0,0.1,0,0.3,0.1,0.3c0.1,0.1,0.2,0.1,0.3,0.1
		C806.2,255.9,806.5,256,806.6,256.2z M809.9,252 M806.1,245.6c-0.3,0.5-0.4,0.9-0.6,1.4c-0.2,0.7-0.1,1.4,0.1,2.1s0.5,1.3,0.6,2
		c0.1,0.3,0.1,0.7,0,1c0,0.2-0.1,0.3-0.1,0.5c-0.1,0.1-0.2,0.3-0.2,0.4c-0.1,0.3,0.6,0.1,0.8,0.1c0.4,0,0.7-0.1,1.1-0.2
		c0.4-0.1,0.6-0.2,1-0.4c0,0,0.1,0,0.1,0c0.1,0,0.2,0,0.3-0.1c0.1-0.1,0.3-0.1,0.4-0.2c0.1-0.1,0.2-0.1,0.3-0.2c0,0,0.1-0.1,0.2-0.1
		c0.3-0.1,0.6-0.3,0.9-0.5c0.6-0.3,1.2-0.6,1.8-0.9c2.5-1.3,4.9-2.7,7.2-4.3c2.3-1.5,4.6-3.2,6.8-4.9c2-1.6,3.9-3.2,5.7-4.9
		c-5.1,7.7-12.5,13.7-21,17.2c0,0,0.1,0.6,0.1,0.7c0,0.3,0.1,0.5,0.1,0.8c0,0.5,0,1.1,0,1.6c-0.1,1.1-0.4,2.1-0.8,3.1
		c-0.8,2-2.2,3.7-4,4.8c-0.5,0.3-0.9,0.5-1.4,0.7c-0.1,0.1-0.2,0.1-0.2,0.2c-0.1,0.3-0.2,0.5-0.2,0.8c-0.2,0.6-0.3,1.1-0.4,1.7
		c-0.1,0.4-0.1,0.8-0.2,1.2c-0.3,2.6-0.8,4-0.5,6.6c0.4,4.4-1.1,6-2.2,8.5c2.2-2.7,3.4-5.3,4.2-8.3c-0.1,4.1-1,8.1-2.5,11.9
		c1.5-3.5,4.4-6.1,7.2-8.6c4.1-3.7,7.9-7.9,12.4-11.3c6-4.5,12.5-8.2,18.2-13c6.9-5.8,13.1-13.2,17-21.4
		c-7.1,12.2-14.4,24.6-25.6,33.2c-3.1,2.4-6.4,4.4-9.7,6.4c-2.2,1.3-3.4,3.5-5.6,4.8c8.5-7.5,19.9-10.4,30.1-15.3
		c16.9-7.9,31.1-21.5,39.8-38.1c2.4-4.6,4.7-9.6,9.4-12c-1.5-0.3-6.1,3.4-7,4.6c-6.2,8.7-12.8,17-20.3,24.6
		c5.9-7.6,10.5-16.3,13.3-25.5c0.9-3,1.6-6.1,2.9-8.9c1.3-2.8,3.5-5.9,6.2-7.4c-3.1,1.3-5.4,4-7.1,6.9c-1.6,2.9-2.7,6.1-3.9,9.3
		c-4.4,10.9-11.6,20.9-20.4,28.7c5.2-7,10.8-14.9,12.5-22.8c-1.8,3.5-3.8,6.8-6.4,9.7c3.4-5.9,7.2-12,9.1-17.9
		c-1.9,5.9-7.8,12-12.8,17.3c6.7-9.6,13.3-19.2,20-28.8c4.9-7,9.8-14.2,12.4-22.4c1.6-5.1,2.5-10.3,3.4-15.5
		c1.2-6.9,3.3-10.8,7-14.6c-3.3,2.4-5.4,6.2-6.8,10.1c-1.3,3.9-2,8-3.2,11.9c-2.3,7.7-6.5,14.8-11.4,21.2s-11,12.6-16.6,18.4
		c4.7-4.7,6.4-11.6,10-17.3c2.6-4.2,6.3-7.7,8.7-12c3.5-6.1,4.1-13.1,4.8-20.1c-0.2,5.9-2.1,11.8-5.4,16.8
		c-2.3,3.5-5.4,6.6-7.7,10.1c-2.5,3.8-4.3,8.3-8,11c0-0.2,0-0.4,0-0.6c4.4-5.8,7.5-12.5,9.3-19.5c-1.3,4.6-4.2,8.6-7.3,12.3
		c-3.1,3.6-6.6,7-9.4,10.9c-4.5,6.4-7.3,13.9-13.5,18.6c6.1-6.2,9.9-14.3,13.6-22.2c2.8-5.9,5.5-11.9,8.3-17.8
		c2.3-4.9,3.8-9.9,4.5-15.4c-2.5,10.5-7.9,20.3-15.3,28.1c-2.2,2.3-5,4.7-5,7.8c0-1-0.1-2.1-0.1-3.1c10-12.7,17-27.8,20.2-43.6
		c0.4-1.8,0.7-3.6,1.4-5.2s2.1-3.5,3.7-4.3c-2.4,0.9-4.2,2.9-5.6,5c-1.4,2.1-2.5,4.4-3.8,6.6c-3.2,5.1-8.1,9.5-13.8,11.7
		c3.6-2.4,6.8-5.6,9.3-9.2c-8.4,8.1-19.9,12-31,15.6c-2.5,0.8-5,1.6-7.6,2c-2.6,0.4-5.1,0.6-7.6-0.4c1.4,1.2,3.2,1.8,5,1.9
		s3.6-0.1,5.4-0.3c2.1-0.3,4.2-0.5,6.3-0.8c-3.4,1.6-7.6,3.9-11.4,4.3c-3.8,0.5-7.9-0.4-10.5-3.1c-1-1-1.8-2.2-3-2.8
		c-2.5-1.2-6.1,0.6-8.2-1.2c1.3,2.9,4.1,4.7,6.5,6.8c2.4,2.1,4.5,5.1,3.9,8.2c2.6-1.3,6.4-1.1,8.8,0.4c7.7-5.3,16.1-10.2,24.6-14.1
		c-5.7,5.4-12.1,9.9-19,13.6c-2.3,1.2-4.7,2.4-6.2,4.5c-0.7,1-1.1,2.2-1.7,3.3c-1.2,2.3-2.9,4.2-4.6,6.2c-1.7,1.9-3.3,3.7-5,5.6
		c-0.8,1-1.8,2-3,2.3c-0.6,0.1-1.2,0.1-1.8,0.3c-0.6,0.2-0.9,1.2-0.9,1.8c-0.2,3.2-0.4,6.4-0.5,9.7c0.4-1.2,0.9-2.5,1.9-3.3
		c1-0.8,2.7-0.8,3.3,0.3c3.8-2.3,7.4-5.1,10.6-8.1c6.1-5.7,11.5-12.6,18.6-17c-6.8,7.3-13.7,14.5-20.5,21.8c-2.3,2.4-4.9,5-8.2,5.4
		c-1.1,0.1-2.3,0-3,0.9c-0.3,0.4-0.4,0.9-0.6,1.4c-0.1,0.5-0.4,1-0.8,1.3c-0.5,0.3-1.2,0.1-1.2-0.5c0.2,7.3,2.5,10.9-0.5,11.8
		c4.9,0,3.9-4.6,6.8-4.4c-2.9,5.8,1,1.9,1.5,2.4c-1.8,2.1-3.6,2.1-5.1,2.7c3.4-0.3,9-2.5,12.1-4c9.7-4.9,19.5-11.5,26.9-19.6
		c-2.2,4.9-5.9,9.1-10.1,12.5s-8.8,6.2-13.5,8.9c-3,1.8-6.1,3.6-9.6,4.1c-1.9,0.3-3.9,0.1-5.6,1
		C807.1,242.6,806.8,244.2,806.1,245.6z"/>
</g>
</svg>
